<?xml version="1.0" standalone="no"?>
<!DOCTYPE svg PUBLIC "-//W3C//DTD SVG 1.1//EN" "http://www.w3.org/Graphics/SVG/1.1/DTD/svg11.dtd" >
<!--
2013-9-30: Created.
-->
<svg>
<metadata>
Created by iconfont
</metadata>
<defs>

<font id="iconfont" horiz-adv-x="1024" >
  <font-face
    font-family="iconfont"
    font-weight="500"
    font-stretch="normal"
    units-per-em="1024"
    ascent="896"
    descent="-128"
  />
    <missing-glyph />
    
    <glyph glyph-name="x" unicode="x" horiz-adv-x="1001"
d="M281 543q-27 -1 -53 -1h-83q-18 0 -36.5 -6t-32.5 -18.5t-23 -32t-9 -45.5v-76h912v41q0 16 -0.5 30t-0.5 18q0 13 -5 29t-17 29.5t-31.5 22.5t-49.5 9h-133v-97h-438v97zM955 310v-52q0 -23 0.5 -52t0.5 -58t-10.5 -47.5t-26 -30t-33 -16t-31.5 -4.5q-14 -1 -29.5 -0.5
t-29.5 0.5h-32l-45 128h-439l-44 -128h-29h-34q-20 0 -45 1q-25 0 -41 9.5t-25.5 23t-13.5 29.5t-4 30v167h911zM163 247q-12 0 -21 -8.5t-9 -21.5t9 -21.5t21 -8.5q13 0 22 8.5t9 21.5t-9 21.5t-22 8.5zM316 123q-8 -26 -14 -48q-5 -19 -10.5 -37t-7.5 -25t-3 -15t1 -14.5
t9.5 -10.5t21.5 -4h37h67h81h80h64h36q23 0 34 12t2 38q-5 13 -9.5 30.5t-9.5 34.5q-5 19 -11 39h-368zM336 498v228q0 11 2.5 23t10 21.5t20.5 15.5t34 6h188q31 0 51.5 -14.5t20.5 -52.5v-227h-327z" />
    

    
    <glyph glyph-name="yingdaicon04" unicode="&#58947;" d="M691.328 453.536c11.648 0 23.04-0.896 34.432-2.24-31.104 144-185.344 250.816-361.792 250.816-197.184 0-358.72-133.76-358.72-303.68 0-97.984 53.696-178.432 143.616-241.024l-35.84-107.392 125.184 62.528c44.928-8.832 81.088-17.92 125.76-17.92 11.136 0 22.4 0.64 33.408 1.472-6.848 23.936-11.072 48.896-11.072 74.816C386.304 326.816 520.704 453.536 691.328 453.536zM498.368 550.432c27.008 0 44.864-17.728 44.864-44.672 0-26.752-17.856-44.672-44.864-44.672-26.944 0-53.952 17.92-53.952 44.672C444.416 532.704 471.424 550.432 498.368 550.432zM247.488 461.088c-27.008 0-54.208 17.92-54.208 44.672 0 26.88 27.2 44.672 54.208 44.672 26.688 0 44.416-17.728 44.416-44.672C291.968 479.008 274.176 461.088 247.488 461.088zM1018.496 175.264c0 142.784-143.424 259.072-304.448 259.072-170.816 0-305.28-116.224-305.28-259.072 0-143.104 134.464-259.072 305.28-259.072 35.712 0 71.552 8.832 107.52 17.792l98.368-53.696-27.008 89.344C964.992 23.328 1018.496 94.624 1018.496 175.264zM615.04 220c-17.728 0-35.968 17.536-35.968 35.584 0 17.856 18.176 35.712 35.968 35.712 27.264 0 44.8-17.856 44.8-35.712C659.904 237.6 642.304 220 615.04 220zM812.352 220c-17.92 0-35.712 17.536-35.712 35.584 0 17.856 17.728 35.712 35.712 35.712 26.752 0 44.8-17.856 44.8-35.712C857.216 237.6 839.104 220 812.352 220z"  horiz-adv-x="1024" />

    
    <glyph glyph-name="article" unicode="&#59129;" d="M161.89318 795.441882c0-43.834344 0-87.276762 0-131.211391-22.268166 0-44.036959 0-65.996087 0 0-22.243607 0-43.988864 0-66.281589 22.237467 0 44.148499 0 65.75868 0 0-22.297842 0-44.046169 0-66.301032-22.248723 0-44.002167 0-65.818031 0 0-21.789259 0-43.057655 0-64.833611 22.025643 0 43.786249 0 65.920362 0 0-22.369473 0-44.231387 0-66.466808-22.182208 0-43.969421 0-65.62872 0 0-22.234397 0-44.091194 0-66.278519 22.196535 0 43.831274 0 65.697281 0 0-21.74014 0-43.137473 0-65.034179-22.089088 0-43.855834 0-65.935712 0 0-22.246677 0-43.991933 0-66.286706 22.12388 0 44.034912 0 65.824171 0 0-22.296819 0-44.043099 0-66.295915-22.192442 0-43.949978 0-65.767889 0 0-21.911032 0-43.307342 0-65.199954 22.146393 0 43.914162 0 65.87022 0 0-22.245653 0-43.989887 0-66.283636-22.242584 0-44.151569 0-65.754586 0 0-22.300912 0-44.049239 0-66.303079 22.246677 0 44.001143 0 66.268286 0 0-43.944861 0-87.376023 0-130.883933 267.020496 0 533.517059 0 800.263309 0 0 329.267189 0 658.291854 0 987.659327C695.624111 795.441882 429.009867 795.441882 161.89318 795.441882zM896.064212-125.781336c-222.292805 0-444.395276 0-666.884556 0 0 21.285792 0 42.526559 0 64.327074 1.867534 0.113587 3.808746 0.332575 5.749958 0.335644 18.656919 0.026606 37.312814 0.048095 55.969733-0.01842 2.666736-0.00921 4.539386 0.215918 4.527107 3.624551-0.072655 20.660552-0.036839 41.321104-0.036839 62.59257-22.157649 0-44.069705 0-66.597791 0 0 3.059686 0 5.519714 0 7.979742 0 17.312294 0.173962 34.626635-0.109494 51.933813-0.081864 5.003967 1.210571 6.706749 6.441713 6.628978 19.817348-0.290619 39.641859-0.116657 59.867506-0.116657 0 21.657252 0 43.042305 0 65.045435-1.871627 0-3.662413 0-5.454222 0-18.320251 0-36.641525 0.107447-54.959729-0.078795-4.261047-0.042979-5.931083 1.032516-5.880941 5.624091 0.221034 19.97903 0.095167 39.962154 0.095167 60.564377 22.187325 0 44.093241 0 66.303079 0 0.13303 1.542122 0.286526 2.496867 0.286526 3.451612 0.01535 19.328207-0.063445 38.658462 0.078795 57.985646 0.028653 3.841491-1.003863 5.211698-5.109368 5.160533-18.317181-0.226151-36.639478-0.098237-54.959729-0.098237-1.981121 0-3.963265 0-6.27082 0 0 21.797445 0 43.037189 0 64.73435 2.068102 0.110517 4.02671 0.303922 5.984295 0.306992 18.488073 0.023536 36.977169 0.019443 55.465243 0.008186 2.372024-0.001023 4.837168-0.424672 4.828982 3.269463-0.047072 20.808932-0.022513 41.617863-0.022513 63.039755-22.278399 0-44.187385 0-66.585511 0 0 4.759397 0 8.919137 0 13.077853 0 15.798824 0.173962 31.601742-0.104377 47.39545-0.084934 4.801353 1.569752 5.977132 6.109138 5.921873 18.149359-0.220011 36.303834-0.091074 54.456263-0.091074 1.819438 0 3.637854 0 5.8001 0 0 21.663392 0 42.925648 0 64.811098-1.657756 0.074701-3.421936 0.222057-5.186116 0.224104-18.656919 0.017396-37.313837 0.069585-55.969733-0.040932-3.508917-0.020466-5.200442 0.814552-5.169743 4.76349 0.150426 19.663852 0.072655 39.32975 0.088004 58.994626 0.001023 0.642636 0.146333 1.284249 0.296759 2.523473 21.998013 0 43.906999 0 66.285682 0 0 5.439896 0 10.271948 0 15.103999 0 15.126512-0.1361 30.256094 0.083911 45.379537 0.064468 4.423753-0.918929 6.107091-5.812379 6.021134-18.146289-0.317225-36.302811-0.135076-54.454216-0.113587-1.970888 0.002047-3.941775 0.174985-6.152117 0.279363 0 21.511943 0 42.62582 0 64.25135 222.195591 0 444.407556 0 667.001213 0C896.064212 443.946436 896.064212 159.269815 896.064212-125.781336zM795.650245 405.564267c0 84.35113-0.046049 168.70226 0.112564 253.052366 0.010233 5.143137-1.798972 5.957689-6.40078 5.953595-129.047098-0.115634-258.093173-0.093121-387.140271-0.093121-1.804089 0-3.607154 0-5.822612 0 0-88.125083 0-175.735443 0-263.655865 133.175115 0 266.008446 0 399.2511 0C795.650245 402.604866 795.650245 404.084567 795.650245 405.564267zM728.711693 467.175487c-88.537476 0-177.00025 0-265.919419 0 0 43.747363 0 87.055728 0 130.682341 88.645946 0 177.11486 0 265.919419 0C728.711693 554.376525 728.711693 510.953549 728.711693 467.175487z"  horiz-adv-x="1024" />

    
    <glyph glyph-name="icongithub" unicode="&#59161;" d="M0 296.128C0 70.88 144.352-120.64 345.584-190.976c27.12-6.896 22.896 12.544 22.896 25.616l0 89.424c-156.464-18.304-162.736 85.28-173.296 102.608-21.312 36.272-71.392 45.488-56.432 62.752 35.696 18.432 71.968-4.608 114-66.784 30.464-45.072 89.664-37.504 119.936-29.936 6.624 27.056 20.704 51.2 39.952 70.08-161.888 28.816-229.552 127.792-229.552 245.44 0 56.944 18.8 109.504 55.808 151.856-23.408 69.888 2.256 129.472 5.616 138.416 66.928 6.08 136.512-47.872 141.872-52.128 38.128 10.192 81.52 15.76 130.064 15.76 48.848 0 92.48-5.632 130.784-15.952 13.072 9.952 77.584 56.192 139.824 50.544 3.312-8.848 28.416-67.168 6.4-136.016 37.376-42.464 56.352-95.264 56.352-152.48 0-117.888-67.952-217.008-230.528-245.6 27.152-26.736 43.984-63.92 43.984-105.04l0-129.712c0.864-10.336 0-20.736 17.36-20.736 204.112 68.752 351.12 261.712 351.12 489.008C1031.744 581.04 800.784 812 515.872 812 230.96 812 0 581.04 0 296.128L0 296.128zM0 296.128"  horiz-adv-x="1032" />

    
    <glyph glyph-name="icon19" unicode="&#58893;" d="M940.571-52.693l-214.475 214.722c44.778 60.855 69.263 134.077 69.263 211.012 0 95.732-37.354 185.78-104.889 253.311-67.781 67.536-157.825 104.889-253.557 104.889s-185.78-37.354-253.311-104.889c-139.518-139.518-139.518-366.859 0-506.626 67.536-67.536 157.579-104.889 253.311-104.889 77.18 0 150.155 24.487 211.257 69.263l214.475-214.722c21.52-21.52 56.403-21.52 77.676 0 21.77 21.52 21.77 56.403 0.25 77.921zM252.866 188.744c-101.425 101.673-101.425 266.916 0 368.342 49.227 49.227 114.535 76.192 184.295 76.192 69.511 0 134.819-26.966 184.047-76.192 49.227-49.227 76.443-114.535 76.443-184.295 0-69.762-27.211-135.065-76.443-184.295-49.227-49.227-114.535-76.192-184.047-76.192-69.762 0.25-135.065 27.211-184.295 76.443z"  horiz-adv-x="1024" />

    
    <glyph glyph-name="comment" unicode="&#58936;" d="M595.2-147.808c-8.192 0-16.384 3.136-22.656 9.344-12.48 12.48-12.48 32.768 0 45.248l194.176 194.176c6.016 6.016 14.144 9.344 22.656 9.344l83.2 0c12.928 0 23.424 10.56 23.424 23.488L896 577.568c0 12.992-10.496 23.488-23.424 23.488L151.488 601.056C138.56 601.12 128 590.56 128 577.568l0-443.776c0-12.928 10.56-23.488 23.488-23.488l388.224 0c17.664 0 32-14.336 32-32s-14.336-32-32-32L151.488 46.304C103.232 46.368 64 85.6 64 133.856L64 577.568c0 48.256 39.232 87.488 87.488 87.488l721.088 0C920.768 665.12 960 625.824 960 577.568l0-443.776c0-48.192-39.232-87.488-87.424-87.488l-69.952 0L617.792-138.4C611.584-144.672 603.392-147.808 595.2-147.808zM514.688 360.224m-48 0a0.75 0.75 0 1 0 96 0 0.75 0.75 0 1 0-96 0ZM706.688 360.224m-48 0a0.75 0.75 0 1 0 96 0 0.75 0.75 0 1 0-96 0ZM317.376 360.224m-48 0a0.75 0.75 0 1 0 96 0 0.75 0.75 0 1 0-96 0Z"  horiz-adv-x="1024" />

    
    <glyph glyph-name="nodejs" unicode="&#59066;" d="M936.547 541.415c-0.011 3.118-2.233 6.938-4.939 8.487L515.201 788.377c-2.706 1.549-7.125 1.534-9.819-0.035L90.654 546.961c-2.695-1.568-4.891-5.403-4.88-8.521l1.678-479.857c0.011-3.118 2.234-6.937 4.939-8.486l416.406-238.473c2.706-1.55 7.125-1.534 9.819 0.034l414.73 241.381c2.694 1.568 4.891 5.402 4.88 8.521L936.547 541.415zM814.381 150.738c0-3.118-0.667-8.132-1.482-11.141l-7.363-13.08c-2.15-2.258-6.091-5.429-8.756-7.046L537.571-37.775c-2.665-1.617-7.191-3.945-10.058-5.173 0 0-3.76-1.61-8.534-1.61-3.945 0-6.206 0.788-6.206 0.788-2.944 1.026-7.649 2.979-10.455 4.34l-111.779 54.191c-2.806 1.36-3.989 4.77-2.628 7.575l18.175 37.488c1.36 2.806 4.769 3.988 7.575 2.628l98.803-47.9c2.806-1.36 7.283-1.15 9.948 0.467l234.122 142.028c2.665 1.617 4.847 5.491 4.847 8.609L761.381 434.439c0 3.118-2.196 6.967-4.882 8.553l-232.783 137.49c-2.686 1.586-7.091 1.607-9.791 0.047L275.533 442.777c-2.7-1.56-4.909-5.388-4.909-8.506l0-274.058c0-3.118 1.895-7.377 4.211-9.465 0 0 47.7-42.992 70.326-42.073 20.602 0.809 39.447 19.069 39.447 19.069 2.239 2.17 4.071 6.496 4.071 9.614l0 298.15c0 3.118 2.551 5.669 5.669 5.669l41.661 0c3.118 0 5.669-2.551 5.669-5.669l0-307.43c0-3.118-0.381-8.191-0.847-11.274 0 0-0.729-4.828-3.678-9.204-1.367-2.028-34.115-49.695-89.916-51.885-42.427-1.689-84.12 22.849-123.863 72.864-3.725 4.688-4.792 10.899-4.792 10.899-0.528 3.072-0.96 8.138-0.96 11.256L217.622 449.565c0 3.118 0.682 8.128 1.514 11.133l7.755 13.437c2.185 2.225 6.182 5.321 8.881 6.881l265.039 153.149c2.7 1.56 7.38 3.469 10.401 4.242l15.764-0.075c3.014-0.802 7.675-2.756 10.36-4.342l259.137-153.055c2.686-1.586 6.657-4.716 8.826-6.955l7.579-13.278c0.825-3.007 1.5-8.019 1.5-11.137L814.378 150.738zM648.051 243.002c-6.746 4.373-23.514 9.932-50.309 16.678-36.092 9.111-61.109 16.994-75.053 23.65-13.947 6.652-24.52 15.859-31.719 27.617-7.203 11.757-10.799 24.745-10.799 38.962 0 12.941 2.961 24.924 8.886 35.955 5.921 11.027 13.987 20.186 24.197 27.479 7.658 5.647 18.09 10.433 31.309 14.354 13.211 3.918 27.385 5.878 42.516 5.878 22.783 0 42.789-3.281 60.016-9.843 17.225-6.563 29.939-15.449 38.141-26.659 8.203-11.209 15.531-39.489 15.531-39.489 0.782-3.018-1.105-5.833-4.195-6.254l-36.887-5.03c-3.09-0.421-6.396 1.664-7.347 4.633 0 0-6.794 21.212-17.274 29.599-10.484 8.381-25.291 12.577-44.432 12.577-22.604 0-38.736-3.738-48.395-11.21-9.664-7.476-14.49-16.226-14.49-26.249 0-6.383 2.004-12.124 6.014-17.225 4.008-5.29 10.297-9.664 18.867-13.125 4.922-1.824 19.412-6.015 43.473-12.577 34.814-9.296 59.102-16.91 72.865-22.832 13.762-5.926 24.561-14.539 32.402-25.838 7.834-11.305 11.756-25.338 11.756-42.107 0-16.404-4.787-31.854-14.355-46.346-9.568-14.49-23.377-25.699-41.422-33.629s-38.463-11.895-61.248-11.895c-37.73 0-66.486 7.836-86.263 23.514-19.778 15.676-36.066 64.347-36.066 64.347-0.99 2.957 0.721 5.772 3.801 6.257l37.469 5.895c3.08 0.484 6.334-1.563 7.23-4.549 0 0 8.712-29.021 21.2-39.41 12.482-10.391 29.938-15.586 52.359-15.586 22.6 0 39.373 4.602 50.309 13.807 10.938 9.203 16.406 20.004 16.406 32.4C662.543 227.869 657.709 236.619 648.051 243.002z"  horiz-adv-x="1024" />

    
    <glyph glyph-name="iconcomments" unicode="&#58976;" d="M992 156c-17.664 0-32 14.336-32 32L960 684 208 684c-17.664 0-32 14.336-32 32s14.336 32 32 32l784 0c17.664 0 32-14.336 32-32l0-528C1024 170.336 1009.664 156 992 156zM240-148c-8.336 0-16.672 3.248-22.96 9.696-12.304 12.688-12 32.944 0.672 45.248l164.784 160C388.464 72.752 396.464 76 404.784 76L832 76 832 556 64 556l0-480 176 0c17.664 0 32-14.336 32-32s-14.336-32-32-32L32 12c-17.664 0-32 14.336-32 32L0 588c0 17.664 14.336 32 32 32l832 0c17.664 0 32-14.336 32-32l0-544c0-17.664-14.336-32-32-32L417.76 12l-155.472-150.96C256.08-145.008 248.032-148 240-148zM272 268l-96 0c-17.664 0-32 14.336-32 32s14.336 32 32 32l96 0c17.664 0 32-14.336 32-32S289.664 268 272 268zM528 268l-96 0c-17.664 0-32 14.336-32 32s14.336 32 32 32l96 0c17.664 0 32-14.336 32-32S545.664 268 528 268zM752 268l-128 0c-17.664 0-32 14.336-32 32s14.336 32 32 32l128 0c17.664 0 32-14.336 32-32S769.664 268 752 268z"  horiz-adv-x="1024" />

    
    <glyph glyph-name="socialangular" unicode="&#59491;" d="M427.146 300 596.838 300 511.984 478.712ZM511.962 748 64 588l92.24-544L512-148l355.5 192L960 588 511.962 748zM688 108l-53.178 112L389.168 220 336 108l-80 0L512 668l256-560L688 108z"  horiz-adv-x="1024" />

    
    <glyph glyph-name="socialjavascript" unicode="&#59515;" d="M416 635.998l-160 0 0-424.996c0-105.16-36.064-134.522-98.824-134.522-29.41 0-55.896 5.042-76.5 12.126L64-35.808c29.4-10.124 74.518-16.192 109.814-16.192C317.91-52 416 15.742 416 209.96L416 635.998 416 635.998zM764.926 652C610.04 652 512 564.004 512 447.692c0-100.166 75.502-162.88 185.282-203.33 79.4-28.316 110.784-53.616 110.784-95.078 0-45.512-36.278-74.85-104.896-74.85-63.726 0-121.578 21.28-160.788 42.51l0 0.042L512-9.454c37.278-21.276 106.882-42.51 182.334-42.51C875.708-51.96 960 45.14 960 159.432c0 97.1-53.916 159.8-170.556 204.326-86.278 34.382-122.54 53.59-122.54 97.084 0 34.4 31.376 65.738 96.086 65.738 63.692 0 107.488-21.414 133.01-34.582l38.25 128C894.25 637.56 840.376 652 764.926 652L764.926 652z"  horiz-adv-x="1024" />

    
    <glyph glyph-name="weibo" unicode="&#58908;" d="M899.370003 424.735909c0-11.473309-8.856715-20.765953-19.767206-20.765953-10.909467 0-19.751856 9.293667-19.751856 20.765953 0 1.038656 0.145309 2.046612 0.287549 3.050476l-0.287549 0c0 108.091834-83.538625 195.704241-186.570209 195.704241-1.955538 0-3.859911-0.251733-5.816472-0.302899l0 0.605797c-9.532097 1.49198-16.85283 10.044774-16.85283 20.463054 0 10.416234 7.319709 18.955724 16.85283 20.447704l0 0.017396c0.049119 0 0.112564 0 0.158612 0 0.899486 0.135076 1.812275 0.285502 2.755764 0.285502 0.305969 0 0.610914-0.066515 0.912789-0.083911 0.611937 0.033769 1.217734 0.083911 1.843998 0.083911 124.947733 0 226.234581-106.213044 226.234581-237.21875l-0.305969 0C899.210367 426.781498 899.370003 425.774565 899.370003 424.735909zM783.407921 403.968933c-10.908444 0-19.751856 9.293667-19.751856 20.765953 0 2.750647 0.529049 5.382591 1.458211 7.78122-2.308579 49.66719-40.319288 89.406263-87.753623 91.620697-2.176572-0.873903-4.516874-1.39272-6.982018-1.39272-10.906397 0-19.767206 9.292644-19.767206 20.74958 0 10.432607 7.319709 18.971074 16.85283 20.463054l0 0c0.049119 0 0.095167 0.01842 0.144286 0.01842 0.914836 0.13303 1.826602 0.283456 2.771113 0.283456 0.305969 0 0.610914-0.083911 0.912789-0.099261 0.611937 0.049119 1.217734 0.099261 1.843998 0.099261 71.810512 0 130.038682-61.10673 130.038682-136.474254l-0.301875 0c0.145309-1.004887 0.301875-2.01182 0.301875-3.050476C803.174104 413.2626 794.317389 403.968933 783.407921 403.968933zM699.61347 350.29243c15.826454 1.99647 33.238009 1.12359 52.783157-4.027733 54.094012-14.275121 75.721589-50.823526 73.349565-106.48115-2.4017-56.714699-62.153572-158.248164-151.505599-212.542744-59.607586-40.056298-137.396253-67.785849-218.162742-67.785849-170.84097 0-331.447854 104.050798-331.447854 232.388744 0 1.693572 0.160659 3.40454 0.232291 5.101181 0 0.064468 0.008186 0.13303 0.008186 0.183172 0.119727 2.449795 0.272199 4.898567 0.544399 7.349385C135.867946 331.55467 334.302367 533.346559 393.700175 539.419881c55.440683 5.668093 114.549919-12.782118 109.85806-82.008782-0.354064-5.199419-1.506307-10.769274-2.979868-16.489556 44.388976 26.621311 96.625688 45.239344 143.641491 36.182061C708.806853 464.674527 724.538139 400.362802 699.61347 350.29243zM441.30745 328.435633c-128.087237 0-231.890394-71.943542-231.890394-160.710238 0-88.750323 103.803157-160.695912 231.890394-160.695912 128.055514 0 231.874021 71.945589 231.874021 160.695912C673.182494 256.49209 569.362964 328.435633 441.30745 328.435633zM415.8875 48.627902c-67.13605 0-121.537054 50.6424-121.537054 113.089661 0 62.451354 54.401004 113.089661 121.537054 113.089661 67.134003 0 121.55138-50.637284 121.55138-113.089661C537.43888 99.271326 483.021503 48.627902 415.8875 48.627902zM401.709593 173.510144c-21.914102 0-39.661302-18.60166-39.661302-41.530882 0-22.930245 17.747199-41.518602 39.661302-41.518602 21.913079 0 39.678698 18.588357 39.678698 41.518602C441.388291 154.909507 423.622672 173.510144 401.709593 173.510144z"  horiz-adv-x="1024" />

    
    <glyph glyph-name="left" unicode="&#58898;" d="M659.20256-44.832c27.14496 0 49.14944 22.00448 49.14944 49.15456 0 13.2544-5.25952 25.26464-13.78048 34.10944l0.01536 0.01536L433.69216 299.3472 691.2128 556.87296c10.4896 9.00992 17.14048 22.36544 17.14048 37.27488 0 27.14496-22.00448 49.14944-49.14944 49.14944-13.1904 0-25.16864-5.2096-34.00064-13.68064l-0.12928 0.13184L330.16192 334.83776l0.01536-0.02048c-9.27488-8.94464-15.04-21.47456-15.04-35.37024l0-0.1152 0-0.1152c0-13.90976 5.76512-26.41024 15.04-35.37536l-0.01536-0.01536 294.91072-294.90944 0.01408 0.01536C633.91744-39.58784 645.94688-44.832 659.20256-44.832L659.20256-44.832zM659.20256-44.832"  horiz-adv-x="1024" />

    
    <glyph glyph-name="qq" unicode="&#58938;" d="M800.832 327.264C830.058667 404.874667 778.048 438.24 778.048 438.24 778.88 578.293333 661.461333 705.418667 521.685333 705.418667 382.016 705.418667 268.501333 594.336 265.429333 439.2 265.429333 438.837333 215.061333 393.632 236.117333 324.405333 187.221333 298.741333 116.992 167.648 164.394667 82.848 174.976 63.968 204.885333 86.154667 231.338667 133.941333 246.784 82.016 260.288 63.306667 292.245333 29.557333 201.749333 11.210667 210.794667-53.408 238.058667-73.013333 260.330667-88.885333 297.578667-101.984 343.552-104.736 430.997333-110.154667 479.978667-78.24 499.050667-61.749333 502.997333-61.92 520.853333-61.749333 525.781333-61.578667 543.872-77.984 591.125333-110.154667 678.869333-104.736 724.842667-101.984 761.024-91.210667 783.936-76.256 802.069333-64.437333 818.88-30.474667 783.978667 0.16 768.576 13.621333 749.461333 24.117333 729.749333 29.792 759.424 61.301333 781.248 99.082667 792.362667 140.768 816.213333 89.930667 846.72 64.053333 857.28 83.274667 908.992 177.696 836.394667 294.368 800.832 327.264Z"  horiz-adv-x="1024" />

    
    <glyph glyph-name="home" unicode="&#59194;" d="M1017.395271 189.152l-452.0448 499.6096c-14.0288 15.5136-32.9728 24.064-53.3504 24.064 0 0 0 0 0 0-20.3264 0-39.2704-8.5504-53.3504-24.064l-452.0448-499.6096c-9.472-10.496-8.6528-26.6752 1.792-36.1472 4.9152-4.4544 11.0592-6.6048 17.152-6.6048 6.9632 0 13.9264 2.816 18.9952 8.448l109.0048 120.4736 0-410.5216c0-42.3424 34.4576-76.8 76.8-76.8l563.2 0c42.3424 0 76.8 34.4576 76.8 76.8l0 410.5216 109.0048-120.4736c9.472-10.496 25.6512-11.3152 36.1472-1.792s11.3152 25.6512 1.792 36.1472zM614.400071-160.8l-204.8 0 0 230.4c0 14.1312 11.4688 25.6 25.6 25.6l153.6 0c14.1312 0 25.6-11.4688 25.6-25.6l0-230.4zM819.200071-135.2c0-14.1312-11.4688-25.6-25.6-25.6l-128 0 0 230.4c0 42.3424-34.4576 76.8-76.8 76.8l-153.6 0c-42.3424 0-76.8-34.4576-76.8-76.8l0-230.4-128 0c-14.1312 0-25.6 11.4688-25.6 25.6l0 467.0976 291.84 322.56c4.1984 4.6592 9.6768 7.2192 15.36 7.2192s11.1616-2.56 15.36-7.2192l291.84-322.56 0-467.0976z"  horiz-adv-x="1025" />

    
    <glyph glyph-name="cc-code" unicode="&#58928;" d="M276.565 160.382c-6.022 0-12.044 2.299-16.666 6.896l-188.313 188.314c-9.171 9.148-9.171 24.091 0 33.263l188.313 188.313c9.172 9.171 24.115 9.171 33.285 0 9.173-9.172 9.173-24.114 0-33.286l-171.647-171.648 171.647-171.669c9.173-9.147 9.173-24.091 0-33.286-4.62-4.597-10.641-6.85-16.664-6.85l0.044-0.046zM747.347 160.382c-6.021 0-12.045 2.299-16.641 6.896-9.194 9.148-9.194 24.092 0 33.286l171.623 171.625-171.623 171.645c-9.194 9.174-9.194 24.114 0 33.286 9.148 9.172 24.09 9.172 33.283 0l188.314-188.312c9.148-9.172 9.148-24.114 0-33.309l-188.313-188.315c-4.642-4.597-10.665-6.85-16.691-6.85l0.048 0.047zM394.26 160.382c-4.273 0-8.574 1.196-12.48 3.587-11.014 6.895-14.345 21.424-7.469 32.457l235.39 376.604c6.895 11.011 21.422 14.345 32.455 7.47 10.986-6.875 14.345-21.425 7.449-32.437l-235.39-376.648c-4.461-7.125-12.138-11.033-19.954-11.033z"  horiz-adv-x="1024" />

    
    <glyph glyph-name="php" unicode="&#59140;" d="M758 376.4l-40 0-22-112.8 35.6 0c23.6 0 41.2 4.4 52.8 13.2 11.6 8.8 19.6 24 23.6 44.8 4 20 2.4 34-5.2 42.4C795.2 372.4 780.4 376.4 758 376.4zM299.2 376.4l-40 0-22-112.8 35.6 0c23.6 0 41.2 4.4 52.8 13.2 11.6 8.8 19.6 24 23.6 44.8 4 20 2.4 34-5.2 42.4C336.4 372.4 321.6 376.4 299.2 376.4zM512 569.2C229.2 569.2 0 448.7 0 300c0-148.7 229.2-269.2 512-269.2S1024 151.3 1024 300C1024 448.7 794.8 569.2 512 569.2zM373.2 251.6c-12-11.2-24.8-18.8-39.2-23.6-14.4-4.8-32.4-7.2-54.8-7.2l-50.4 0-14-71.6L156 149.2l52.4 270 113.2 0c34 0 58.8-8.8 74.4-26.8s20.4-42.8 14-74.8c-2.4-13.2-6.8-25.2-12.8-36S383.2 260.8 373.2 251.6zM544.8 220.8 568 340.4c2.8 13.6 1.6 22.8-2.8 27.6-4.4 4.8-14.4 7.6-29.2 7.6l-46.8 0-30-154.8-58.4 0 52.4 270 58.4 0-14-71.6 52 0c32.8 0 55.2-5.6 67.6-17.2 12.4-11.6 16-30 11.2-55.6L604 220.8 544.8 220.8zM868.8 317.6c-2.4-13.2-6.8-25.2-12.8-36s-14-20.8-24-30c-12-11.2-24.8-18.8-39.2-23.6-14.4-4.8-32.4-7.2-54.8-7.2l-50.4 0-14-71.6-58.8 0 52.4 270 113.2 0c34 0 58.8-8.8 74.4-26.8C870.4 374.4 875.2 349.6 868.8 317.6z"  horiz-adv-x="1024" />

    
    <glyph glyph-name="html5" unicode="&#59214;" d="M60.544 896l82.144-921.632L511.424-128l369.728 102.528L963.456 896 60.544 896zM784.64 594.56l-0.384 0L352.096 594.56l10.304-115.744L774.368 478.816l-31.04-347.008L511.968 67.648l-0.224-0.064-0.16 0-0.128 0-231.584 64.256-15.84 177.504 113.504 0 8.064-90.24 125.856-33.92 0.288 0.064 125.92 33.984 13.056 146.56L259.008 365.792 228.512 707.584l566.208 0L784.64 594.56z"  horiz-adv-x="1024" />

    
    <glyph glyph-name="link" unicode="&#60415;" d="M726.016 598.016q88.021333 0 150.016-63.018667t61.994667-150.997333-61.994667-150.997333-150.016-63.018667l-171.989333 0 0 82.005333 171.989333 0q54.016 0 93.013333 38.997333t38.997333 93.013333-38.997333 93.013333-93.013333 38.997333l-171.989333 0 0 82.005333 171.989333 0zM342.016 342.016l0 84.010667 340.010667 0 0-84.010667-340.010667 0zM166.016 384q0-54.016 38.997333-93.013333t93.013333-38.997333l171.989333 0 0-82.005333-171.989333 0q-88.021333 0-150.016 63.018667t-61.994667 150.997333 61.994667 150.997333 150.016 63.018667l171.989333 0 0-82.005333-171.989333 0q-54.016 0-93.013333-38.997333t-38.997333-93.013333z"  horiz-adv-x="1024" />

    
    <glyph glyph-name="bangzhu-copy" unicode="&#58954;" d="M430.196 125.588c-9.737 0-18.14 7.298-19.289 17.205-2.836 24.453-48.816 71.637-80.559 97.33-0.525 0.425-1.026 0.876-1.504 1.353-49.061 48.983-76.081 114.135-76.081 183.457 0 69.244 26.965 134.345 75.929 183.308 48.963 48.964 114.063 75.929 183.308 75.929 10.738 0 19.443-8.705 19.443-19.443 0-10.739-8.705-19.443-19.443-19.443-121.502 0-220.352-98.849-220.352-220.352 0-58.607 22.724-113.711 64.002-155.269 4.213-3.464 23.18-19.314 42.882-39.804 31.698-32.968 48.38-59.981 51.003-82.586 1.237-10.667-6.407-20.317-17.074-21.554-0.76-0.089-1.518-0.132-2.265-0.132zM430.196 125.588c-9.737 0-18.14 7.298-19.289 17.205-2.836 24.453-48.816 71.637-80.559 97.33-0.525 0.425-1.026 0.876-1.504 1.353-49.061 48.983-76.081 114.135-76.081 183.457 0 69.244 26.965 134.345 75.929 183.308 48.963 48.964 114.063 75.929 183.308 75.929 10.738 0 19.443-8.705 19.443-19.443 0-10.739-8.705-19.443-19.443-19.443-121.502 0-220.352-98.849-220.352-220.352 0-58.607 22.724-113.711 64.002-155.269 4.213-3.464 23.18-19.314 42.882-39.804 31.698-32.968 48.38-59.981 51.003-82.586 1.237-10.667-6.407-20.317-17.074-21.554-0.76-0.089-1.518-0.132-2.265-0.132zM595.509 125.588c-0.747 0-1.503 0.043-2.265 0.132-10.666 1.236-18.31 10.887-17.073 21.553 2.622 22.605 19.304 49.619 51.002 82.587 19.701 20.49 38.668 36.341 42.881 39.804 41.278 41.557 64.002 96.663 64.002 155.269 0 121.502-98.849 220.352-220.351 220.352-10.738 0-19.443 8.704-19.443 19.443 0 10.738 8.705 19.443 19.443 19.443 69.244 0 134.345-26.965 183.308-75.929 48.963-48.963 75.928-114.064 75.928-183.308 0-69.323-27.019-134.476-76.082-183.457-0.478-0.477-0.979-0.928-1.504-1.353-31.744-25.729-77.729-72.938-80.559-97.33-1.146-9.907-9.551-17.204-19.287-17.205zM595.486 125.59h-165.266c-10.738 0-19.443 8.705-19.443 19.443s8.705 19.443 19.443 19.443h165.266c10.738 0 19.443-8.705 19.443-19.443s-8.705-19.443-19.443-19.443zM511.999 125.59c-10.738 0-19.443 8.705-19.443 19.443l0 201.276c0 10.738 8.705 19.443 19.443 19.443s19.443-8.705 19.443-19.443v-201.276c-0-10.739-8.705-19.443-19.443-19.443zM511.982 326.864c-3.893 0-7.821 1.166-11.236 3.59l-108.13 76.748c-8.756 6.216-10.816 18.352-4.602 27.108 6.216 8.757 18.352 10.817 27.108 4.602l108.13-76.748c8.757-6.216 10.816-18.353 4.602-27.108-3.791-5.342-9.785-8.192-15.873-8.192zM511.333 326.864c-6.087 0-12.081 2.85-15.873 8.192-6.215 8.756-4.155 20.893 4.602 27.108l108.13 76.748c8.755 6.216 20.893 4.155 27.108-4.602 6.215-8.756 4.156-20.893-4.602-27.108l-108.13-76.748c-3.414-2.423-7.344-3.59-11.236-3.59zM511.317 704.355c-10.738 0-19.443 8.704-19.443 19.443v89.024c0 10.739 8.705 19.443 19.443 19.443s19.443-8.704 19.443-19.443v-89.024c0-10.738-8.705-19.443-19.443-19.443zM272.571 605.388c-4.975 0-9.952 1.898-13.748 5.695l-62.949 62.949c-7.593 7.593-7.593 19.903 0 27.496s19.903 7.593 27.496 0l62.949-62.949c7.593-7.593 7.593-19.903 0-27.496-3.796-3.796-8.772-5.695-13.748-5.695zM750.115 605.518c-4.976 0-9.952 1.897-13.749 5.695-7.593 7.593-7.592 19.903 0.001 27.496l62.951 62.95c7.593 7.592 19.903 7.592 27.496 0 7.593-7.593 7.592-19.903-0.001-27.496l-62.951-62.95c-3.794-3.795-8.771-5.695-13.747-5.695zM612.711 7.52h-202.789c-10.738 0-19.443 8.705-19.443 19.443s8.705 19.443 19.443 19.443h202.789c10.738 0 19.443-8.705 19.443-19.443s-8.705-19.443-19.443-19.443zM565.382-70.759h-105.058c-10.738 0-19.443 8.705-19.443 19.443s8.705 19.443 19.443 19.443h105.058c10.738 0 19.443-8.705 19.443-19.443s-8.705-19.443-19.443-19.443z"  horiz-adv-x="1024" />

    
    <glyph glyph-name="me" unicode="&#58968;" d="M887.623983-62.261787l-55.851029 0c0 164.008354-132.684952 297.829176-300.272831 308.232107l0 0c-6.919597-0.48914-13.82282-1.052982-20.868283-1.052982-7.045463 0-13.948687 0.563842-20.868283 1.052982l0 0c-167.588903-10.401908-300.272831-144.223752-300.272831-308.232107l-55.851029 0c0 155.36858 101.601003 287.454898 244.122997 339.245448-95.088682 48.484248-160.346965 147.094126-160.346965 261.149788 0 161.939229 131.276882 293.216111 293.216111 293.216111s293.216111-131.276882 293.216111-293.216111c0-114.055662-65.258283-212.665541-160.346965-261.149788C786.02298 225.193111 887.623983 93.10577 887.623983-62.261787zM750.535745 538.13345c0 132.494617-107.409289 239.903905-239.903905 239.903905s-239.903905-107.409289-239.903905-239.903905 107.409289-239.903905 239.903905-239.903905S750.535745 405.638833 750.535745 538.13345z"  horiz-adv-x="1024" />

    
    <glyph glyph-name="clock" unicode="&#59091;" d="M512 832C264.64 832 64 631.424 64 384c0-247.36 200.64-448 448-448 247.424 0 448 200.64 448 448C960 631.424 759.424 832 512 832zM699.648 340.48l-188.544 0c-0.256 0-0.512 0.128-0.768 0.128-0.32 0-0.512-0.128-0.768-0.128C499.392 340.416 490.304 344.64 483.136 351.04c-0.768 0.64-1.728 1.024-2.432 1.664-0.832 0.832-1.28 1.984-1.984 2.816-6.208 7.168-10.304 16-10.304 25.984 0 0.256 0.128 0.448 0.128 0.704 0 0.256-0.128 0.512-0.128 0.768L468.416 635.648c0 23.552 18.432 42.688 41.216 42.624C532.288 678.336 550.656 659.2 550.656 635.712l0.064-212.992 148.864 0c23.552 0 42.688-18.432 42.624-41.216C742.272 358.848 723.136 340.48 699.648 340.48z"  horiz-adv-x="1024" />

    
    <glyph glyph-name="coffe" unicode="&#58995;" d="M919.174048 375.622192c-9.901511 14.57802-30.464849 32.293497-72.66088 32.293497l-49.230238 0c0.791016 31.256888-1.281179 51.822272-1.281179 51.822272L113.370559 459.737962c0 0-14.046924-131.00059 44.294832-233.880725 36.71111-64.041572 58.858526-82.561367 90.361007-114.335025 52.885488-53.104475 116.435872-53.104475 116.435872-53.104475l179.168636 0c0 0 63.550385 0 115.644857 51.54905 11.972683 12.246929 23.156396 22.39301 34.092469 34.393321 179.712011 9.900487 225.289046 135.419226 230.771921 152.083767C927.520133 305.55437 940.012655 344.365304 919.174048 375.622192L919.174048 375.622192 919.174048 375.622192zM867.107205 318.072475l-1.065262-3.136433c-0.243547-0.789992-22.664186-75.523067-121.617895-101.570303 2.346441 3.900843 4.690836 8.073886 7.28287 12.491499 22.147416 39.330774 33.875528 82.560344 39.848567 121.126708l54.956659 0c14.592346 0 20.837584-3.409656 22.147416-5.209652C871.524818 337.60125 869.94381 325.627545 867.107205 318.072475L867.107205 318.072475 867.107205 318.072475zM867.107205 318.072475M813.347814 13.578506 97.551268 13.578506c-43.093471-46.612621 237.944274-76.287477 237.944274-76.287477l239.854786 0C575.350328-62.708971 848.014358-34.125983 813.347814 13.578506M518.372639 515.473357c0.791016-2.605338-7.827269-5.728468-10.664897-4.677533-86.243223 54.16769-65.405639 129.690758-9.137101 184.895057 42.985 41.935088 75.005274 63.032592 75.277474 129.446187-0.273223 5.987365 12.737092 6.764054 14.83794 4.15974C694.676018 679.02634 457.167672 671.212374 518.372639 515.473357M362.879216 515.473357c1.036609-2.605338-7.52744-5.728468-10.419304-4.677533-86.187965 54.16769-65.62258 129.690758-9.109472 184.895057 42.711777 41.935088 74.732052 63.032592 75.005274 129.446187 0 5.987365 13.036921 6.764054 15.110139 4.15974C539.45684 679.02634 301.675272 671.212374 362.879216 515.473357"  horiz-adv-x="1024" />

    
    <glyph glyph-name="think" unicode="&#59097;" d="M721.994779 383.530375 511.602625 595.07853c-1.734001 1.734001-3.901503 3.468003-6.502505 5.202004-2.601002 1.734001-4.985254 2.962252-7.080505 3.684753-1.011501 0.722501-3.684753 1.156001-7.803006 1.300501-4.190503 0.1445-6.647005 0.07225-7.297255-0.289L324.185987 604.976787c-3.468003 0-7.369505-0.578-11.776759-1.806251-4.335003-1.228251-8.236506-3.540253-11.776759-7.080505-3.468003-3.829253-5.635504-7.803006-6.502505-11.993509-0.867001-4.190503-1.661751-8.381006-2.384252-12.499259-0.36125-25.793269-0.722501-49.274536-1.011501-70.516052 0-9.031257-0.07225-17.918013-0.289-26.66027-0.1445-8.742256-0.36125-16.689762-0.50575-24.059268-0.1445-7.297255-0.289-13.43851-0.289-18.279263l0-9.392507c0-5.202004 0.722501-10.115007 2.095252-14.594511 1.372751-4.551753 2.962252-8.597756 4.696253-12.282509 1.734001-3.684753 3.395752-6.647005 4.985254-8.886757 1.589501-2.239752 2.673252-3.757003 3.395752-4.407253l9.898257-9.898257c6.285755-6.285755 14.377761-14.450011 24.276018-24.565018 9.898257-10.115007 21.313766-21.386016 34.174275-33.957525l38.653778-39.159529c30.634022-30.995273 65.458548-65.964298 104.401326-104.979327 2.456502-2.456502 5.491004-4.335003 9.103507-5.780004 3.684753-1.372751 7.586256-2.239752 11.776759-2.601002 4.190503-0.36125 8.236506 0.07225 12.282509 1.300501 3.973753 1.228251 7.730756 3.251252 11.198758 5.996754l161.840119 162.418119C737.45629 347.983349 737.31179 365.395611 721.994779 383.530375L721.994779 383.530375zM406.695548 491.255204c-6.936005-6.936005-15.389261-10.404008-25.359769-10.404008-9.970507 0-18.568264 3.468003-25.648769 10.404008-7.080505 6.936005-10.693008 15.389261-10.693008 25.359769 0 9.970507 3.540253 18.423763 10.693008 25.359769 7.080505 6.936005 15.678261 10.404008 25.648769 10.404008 9.970507 0 18.423763-3.468003 25.359769-10.404008 6.936005-6.936005 10.404008-15.389261 10.404008-25.359769C417.099555 506.644465 413.631553 498.191209 406.695548 491.255204L406.695548 491.255204zM406.695548 491.255204"  horiz-adv-x="1024" />

    
    <glyph glyph-name="list" unicode="&#58913;" d="M935.764911 93.23573 368.705921 93.23573c-13.843286 0-25.015743 11.20418-25.015743 25.048489 0 13.81054 11.172457 25.015743 25.015743 25.015743l567.060013 0c13.81054 0 25.015743-11.205203 25.015743-25.015743C960.780655 104.440933 949.575452 93.23573 935.764911 93.23573zM935.764911 268.281465 368.705921 268.281465c-13.843286 0-25.015743 11.205203-25.015743 25.015743 0 13.843286 11.172457 25.015743 25.015743 25.015743l567.060013 0c13.81054 0 25.015743-11.172457 25.015743-25.015743C960.780655 279.486668 949.575452 268.281465 935.764911 268.281465zM935.764911 443.522652 368.705921 443.522652c-13.843286 0-25.015743 11.205203-25.015743 25.015743 0 13.843286 11.172457 25.015743 25.015743 25.015743l567.060013 0c13.81054 0 25.015743-11.172457 25.015743-25.015743C960.780655 454.728878 949.575452 443.522652 935.764911 443.522652zM935.764911 618.56941 368.705921 618.56941c-13.843286 0-25.015743 11.205203-25.015743 25.015743 0 13.843286 11.172457 25.048489 25.015743 25.048489l567.060013 0c13.81054 0 25.015743-11.205203 25.015743-25.048489C960.780655 629.774613 949.575452 618.56941 935.764911 618.56941zM935.764911 793.810596 368.705921 793.810596c-13.843286 0-25.015743 11.172457-25.015743 25.015743 0 13.811564 11.172457 25.015743 25.015743 25.015743l567.060013 0c13.81054 0 25.015743-11.205203 25.015743-25.015743C960.780655 804.983053 949.575452 793.810596 935.764911 793.810596zM236.688165-82.038202 111.576703-82.038202c-27.589358 0-50.03251 22.409382-50.03251 50.031487L61.544193 93.104747c0 27.589358 22.443152 50.03251 50.03251 50.03251l125.111462 0c27.589358 0 50.03251-22.443152 50.03251-50.03251l0-125.112486C286.719652-59.62882 264.277524-82.038202 236.688165-82.038202zM236.688165 93.104747 111.576703 93.104747l0-125.112486 125.144208 0L236.688165 93.104747zM236.688165 268.215974 111.576703 268.215974c-27.589358 0-50.03251 22.443152-50.03251 50.064232L61.544193 443.359946c0 27.589358 22.443152 50.03251 50.03251 50.03251l125.111462 0c27.589358 0 50.03251-22.443152 50.03251-50.03251l0-125.07974C286.719652 290.659125 264.277524 268.215974 236.688165 268.215974zM236.688165 443.359946 111.576703 443.359946l0-125.07974 125.144208 0L236.688165 443.359946zM236.688165 618.503918 111.576703 618.503918c-27.589358 0-50.03251 22.443152-50.03251 50.03251L61.544193 793.615145c0 27.622104 22.443152 50.064232 50.03251 50.064232l125.111462 0c27.589358 0 50.03251-22.443152 50.03251-50.064232l0-125.078717C286.719652 640.94707 264.277524 618.503918 236.688165 618.503918zM236.688165 793.615145 111.576703 793.615145l0-125.078717 125.144208 0L236.688165 793.615145zM368.705921-31.941224l567.060013 0c13.81054 0 25.015743-11.172457 25.015743-25.015743 0-13.811564-11.205203-25.015743-25.015743-25.015743L368.705921-81.972711c-13.843286 0-25.015743 11.20418-25.015743 25.015743C343.690178-43.113681 354.862635-31.941224 368.705921-31.941224z"  horiz-adv-x="1024" />

    
    <glyph glyph-name="address" unicode="&#58882;" d="M512 830.709995c-197.187011 0-357.037672-159.850661-357.037672-357.037672 0-197.192128 279.800567-498.970242 279.800567-498.970242 42.656519-49.793056 112.468514-50.057069 154.708548 0.265036 0 0 279.56623 301.514101 279.56623 498.705206C869.037672 670.859333 709.191104 830.709995 512 830.709995L512 830.709995 512 830.709995zM512 319.913403c-91.231841 0-165.166737 73.943083-165.166737 165.166737 0 91.222631 73.935919 165.166737 165.166737 165.166737 91.223654 0 165.162644-73.944106 165.162644-165.166737C677.162644 393.856485 603.223654 319.913403 512 319.913403L512 319.913403 512 319.913403zM512 319.913403"  horiz-adv-x="1024" />

    
    <glyph glyph-name="write" unicode="&#59282;" d="M361.6 297.6 361.6 297.6C348.8 310.4 348.8 329.6 361.6 342.4L905.6 886.4C918.4 899.2 937.6 899.2 950.4 886.4L950.4 886.4C963.2 873.6 963.2 854.4 950.4 841.6L406.4 297.6C393.6 284.8 374.4 284.8 361.6 297.6L361.6 297.6ZM832 544 832 64C832 25.6 806.4 0 768 0L128 0C89.6 0 64 25.6 64 64L64 704C64 742.4 89.6 768 128 768L608 768 672 832 128 832C57.6 832 0 774.4 0 704L0 64C0-6.4 57.6-64 128-64L768-64C838.4-64 896-6.4 896 64L896 608 832 544 832 544Z"  horiz-adv-x="1024" />

    
    <glyph glyph-name="earth" unicode="&#59290;" d="M884.189153 463.827912c2.056436 36.903696-3.734249 63.619151-20.86726 65.248868-58.218141 137.838322-194.655966 234.567363-353.68921 234.567363-211.954343 0-383.776459-171.819251-383.776459-383.779529 0-211.931626 171.821092-383.754969 383.776459-383.754969s383.776254 171.823344 383.776254 383.754969C893.409142 408.707728 890.220725 436.804442 884.189153 463.827912zM197.046818 379.865843c0 39.05182 7.183814 76.421326 20.265965 110.886278 16.587179-9.36448 38.874175-11.069103 38.874175-29.793765 0-61.79521 2.317584-128.042007 61.558008-129.068587 1.67372-0.023536 33.03785-11.268239 47.971776-47.965431 5.161556-12.682857 25.578971 0 47.971776 0 11.177164 0 0-17.849735 0-56.441886 0-38.448479 87.452566-97.647971 87.452566-97.647971-0.406253-25.451058 0.703625-46.030564 2.938935-62.467932C334.008166 70.333114 197.046818 209.10203 197.046818 379.865843zM585.419968 76.568937c12.32736 49.76379 18.319432 77.632306 44.056197 98.800213 37.241182 30.595423 4.432553 64.615851-23.89993 60.600398-22.336114-3.190464-8.217967 26.215263-28.15013 27.842115-19.941987 1.583055-45.971826 39.162747-74.66349 52.094881-15.206739 6.840393-30.155401 25.184589-53.608556 26.009578-20.786214 0.757861-51.166538-16.660039-51.166538-3.228736 0 43.259042-4.620023 74.128506-5.574154 86.460573-0.763182 9.906013-6.830978 3.334341 21.275559 2.695798 15.293106-0.389061 7.819083 29.117973 22.959717 30.269193 14.866592 1.112948 50.298774-13.196761 59.322493-7.492648 8.390702 5.314848 61.639054-132.493389 61.639054-22.776545 0 13.014408-7.109317 35.651169 0 47.979144 28.13519 48.723292 54.477547 88.42307 52.106752 94.232584-1.338894 3.27151-28.783352 5.972629-50.734703-1.007343-7.412011-2.346236 2.355856-13.344731-8.285096-15.695266-39.874149-8.726141-75.104944 10.193767-62.771239 27.966754 12.63558 18.223855 58.411136 7.948838 62.425771 44.496628 2.300392 20.938891 4.21725 45.189611 5.501703 63.212898 111.849209-16.578993 204.367346-92.405573 244.656344-194.542379-106.434896-77.544916-79.193053-131.623578-44.22361-162.596396 18.399455-16.277322 35.939537-40.762584 47.36516-58.344622C768.543683 176.508909 686.767805 101.811241 585.419968 76.568937z"  horiz-adv-x="1024" />

    
    <glyph glyph-name="iconme" unicode="&#58880;" d="M575.618946-89.486848l-189.833533 0c-178.708148 0-319.889611 0-319.889611 89.451288l0 18.417465c0 171.092703 143.482879 310.25416 319.889611 310.25416l189.833533 0c176.406732 0 319.9111-139.194202 319.9111-310.25416l0-18.417465C895.530047-89.486848 747.283678-89.486848 575.618946-89.486848L575.618946-89.486848zM471.218178 352.314347c-139.691529 0-253.360382 110.331851-253.360382 245.896386 0 135.575792 113.668853 245.896386 253.360382 245.896386s253.360382-110.287849 253.360382-245.896386C724.57856 462.613452 610.908684 352.314347 471.218178 352.314347L471.218178 352.314347zM471.218178 352.314347"  horiz-adv-x="1024" />

    
    <glyph glyph-name="1" unicode="&#58900;" d="M478.265-31.777l5.915 246.013h-420.286v585.542h896.214v-585.541h-203.592l-278.25-246.014zM118.209 268.553h421.612l-4.27-177.164 200.409 177.164h169.83l0 476.909h-787.581v-476.909zM264.195 497.821c0-20.868 16.917-37.785 37.785-37.785s37.785 16.917 37.785 37.785c0 20.868-16.917 37.785-37.785 37.785-20.868 0-37.785-16.917-37.785-37.785zM484.842 497.821c0-20.868 16.917-37.785 37.785-37.785 20.868 0 37.785 16.917 37.785 37.785 0 20.868-16.917 37.785-37.785 37.785-20.868 0-37.785-16.917-37.785-37.785zM715.254 497.821c0-20.868 16.917-37.785 37.785-37.785s37.785 16.917 37.785 37.785c0 20.868-16.917 37.785-37.785 37.785-20.868 0-37.785-16.917-37.785-37.785z"  horiz-adv-x="1024" />

    
    <glyph glyph-name="yuedu" unicode="&#58914;" d="M119.360784 684.31634l0-568.453595c0 0 78.175163 55.436601 189.079739 55.436601 110.87451 0 189.018301-55.436601 189.018301-55.436601L497.458824 677.151634c0 0-78.145098 64.362092-189.018301 64.362092C197.535948 741.513725 119.360784 684.31634 119.360784 684.31634zM526.542484 684.31634l0-568.453595c0 0 78.146405 55.436601 189.018301 55.436601 110.87451 0 189.048366-55.436601 189.048366-55.436601L904.60915 677.151634c0 0-78.175163 64.362092-189.048366 64.362092C604.688889 741.513725 526.542484 684.31634 526.542484 684.31634zM61.222222 627.118954l29.084967 0 0-543.437908 348.984314 0 0-28.597386 145.420915 0 0 28.597386 348.984314 0 0 543.437908 29.08366 0 0-572.035294L613.797386 55.08366l1.822222-28.598693L410.206536 26.484967l0 28.598693L61.222222 55.08366 61.222222 627.118954z"  horiz-adv-x="1024" />

    
    <glyph glyph-name="gonggao" unicode="&#58901;" d="M892.429312 355.058688l-187.93472 0c-17.298432 0-31.320064 14.02368-31.320064 31.322112 0 17.30048 14.021632 31.322112 31.320064 31.322112l187.93472 0c17.30048 0 31.32416-14.021632 31.32416-31.322112C923.753472 369.082368 909.729792 355.058688 892.429312 355.058688zM846.451712 718.140416l-150.532096-87.703552c-13.852672-8.073216-31.570944-3.282944-39.570432 10.697728-7.995392 13.984768-3.249152 31.865856 10.605568 39.936l150.525952 87.703552c13.852672 8.073216 31.572992 3.282944 39.57248-10.699776C865.050624 744.092672 860.304384 726.213632 846.451712 718.140416zM558.783488 20.95104c-21.793792 0-71.711744 36.85376-71.711744 36.85376l-190.02368 128.852992 0 1.34656L130.249728 188.004352c-23.0656 0-41.765888 18.697216-41.765888 41.76384L88.48384 522.112c0 23.0656 18.699264 41.76384 41.765888 41.76384l166.798336 0 261.538816 167.059456c0 0 56.733696 21.566464 51.746816-58.86976L610.333696 80.2304C610.33472 36.458496 582.549504 20.95104 558.783488 20.95104zM509.943808 647.401472l-191.758336-124.96896 0-0.321536L172.013568 522.110976c-23.0656 0-41.76384-18.697216-41.76384-41.76384l0-208.817152c0-23.0656 18.697216-41.76384 41.76384-41.76384l146.171904 0 0 0.039936 212.784128-146.21184c46.234624-29.858816 37.79584 52.304896 37.79584 52.304896s-0.843776 471.358464 0 501.321728C567.31136 697.281536 509.943808 647.401472 509.943808 647.401472zM700.283904 142.323712l165.578752-87.703552c15.241216-8.073216 20.463616-25.952256 11.666432-39.936-8.803328-13.980672-28.290048-18.770944-43.532288-10.697728l-165.578752 87.701504c-15.241216 8.073216-20.45952 25.954304-11.660288 39.938048C665.555968 145.606656 685.042688 150.396928 700.283904 142.323712z"  horiz-adv-x="1024" />

    
    <glyph glyph-name="tag" unicode="&#60576;" d="M617.915261-111.331365c-25.013697 0-49.402153 10.041704-66.913992 27.552519L105.792465 362.020406c-34.31555 33.723056-61.184501 98.119715-61.184501 146.659221L44.607964 767.730615c0 25.175379 9.94756 48.986691 28.008914 67.049069 18.062378 18.061354 41.87369 28.008914 67.048045 28.008914l259.050987 0c48.261167 0 112.924909-26.858718 147.21283-61.146639l445.351044-444.760596 0.110517-0.11461c17.373693-18.088984 27.336602-42.61354 27.336602-67.283406 0-25.010627-10.038634-49.39499-27.542286-66.903759L685.315324-83.884246l-0.11768-0.112564C667.10866-101.368456 642.585127-111.331365 617.915261-111.331365zM139.665946 832.089411c-34.885532 0-64.358797-29.472242-64.358797-64.358797l0-259.050987c0-40.653909 23.350824-96.645131 52.052516-124.812657l0.109494-0.10847 445.24462-445.837114c11.616572-11.615549 28.515451-18.553565 45.199435-18.553565 16.769942 0 33.492812 6.80294 45.907563 18.672268l305.646212 306.23666c11.621688 11.621688 18.561751 28.52159 18.561751 45.206598 0 16.771989-6.804986 33.496905-18.677385 45.912679L524.230556 779.927401c-28.766161 28.766161-85.067444 52.163033-125.512598 52.163033L139.665946 832.090435zM259.229043 553.111582c-25.477254 0-49.372477 9.863648-67.283406 27.774577-17.910928 17.910928-27.774577 41.806151-27.774577 67.283406s9.863648 49.372477 27.774577 67.283406c17.910928 17.909905 41.806151 27.774577 67.283406 27.774577s49.372477-9.863648 67.283406-27.774577c17.909905-17.910928 27.774577-41.806151 27.774577-67.283406s-9.863648-49.372477-27.774577-67.283406C308.60152 562.975231 284.706297 553.111582 259.229043 553.111582zM259.229043 712.527338c-35.487236 0-64.358797-28.870538-64.358797-64.358797s28.871561-64.358797 64.358797-64.358797 64.358797 28.870538 64.358797 64.358797S294.716278 712.527338 259.229043 712.527338z"  horiz-adv-x="1024" />

    
    <glyph glyph-name="clock1" unicode="&#58888;" d="M658.752 146.752l-210.752 210.752 0 282.496 128 0 0-229.504 173.248-173.248zM512 896c-282.784 0-512-229.216-512-512s229.216-512 512-512 512 229.216 512 512-229.216 512-512 512zM512 0c-212.064 0-384 171.936-384 384s171.936 384 384 384c212.064 0 384-171.936 384-384s-171.936-384-384-384z"  horiz-adv-x="1024" />

    
    <glyph glyph-name="back" unicode="&#59019;" d="M740.724364 104.727273a46.405818 46.405818 0 0 0-32.907637 13.637818L442.181818 384l265.634909 265.634909a46.498909 46.498909 0 1 0 65.815273-65.815273L573.812364 384l199.819636-199.819636A46.498909 46.498909 0 0 0 740.724364 104.727273"  horiz-adv-x="1210" />

    
    <glyph glyph-name="sign-laravel" unicode="&#58881;" d="M623.238857 109.714286c6.857143-9.904 11.046857-9.142857 16.379429-6.857143s279.620571 94.857143 288 97.904 5.714286 5.714286 3.049143 9.906286S836.571429 339.046857 832 346.285714s-6.857143 5.714286-14.096 3.428572l-290.761143-75.657143s89.238857-154.438857 96.096-164.342857zM950.857143 236.176v145.366857c-32.713143-8.717714-74.086857-19.734857-90.420572-24.08 24.64-32.969143 63.163429-84.564571 90.420572-121.286857zM860.155429 536.498286c-4.482286-1.017143-103.705143-18.948571-109.817143-19.762286s-4.075429-4.278857-1.629715-7.741714l87.316572-119.803429s106.761143 26.486857 113.282286 27.913143c0.528 0.116571 1.044571 0.24 1.549714 0.365714v15.862857c-19.405714 24.608-72.276571 91.604571-76.845714 97.865143-5.499429 7.540571-9.373714 6.317714-13.856 5.300572zM235.849143 724.683429c21.485714 0.976 23.446857-3.913143 32.886857-17.910858L505.892571 310.285714l298.194286 71.435429c-16.521143 23.419429-91.526857 129.757714-98.774857 139.904-8.148571 11.410286 0.203429 16.708571 13.446857 18.948571s127.337143 21.392 137.117714 22.818286 17.524571 4.889143 33.414858-14.262857c8.130286-9.798857 35.698286-44.125714 61.565714-76.301714V658.285714c0 45.332571-16.096 84.096-48.285714 116.285715S831.618286 822.857143 786.285714 822.857143H237.714286c-45.332571 0-84.096-16.096-116.285715-48.285714-18.464-18.464-31.604571-39.099429-39.478857-61.888 53.753143 4.416 138.861714 11.316571 153.899429 12zM650.132571 56.352c-25.145143-7.618286-36.420571-11.398857-52.8 11.458286-12.267429 17.12-78.605714 136.605714-111.133714 195.508571-61.558857-16.123429-174.219429-45.526857-206.706286-53.332571-31.709714-7.618286-45.250286 11.392-50.459428 23.110857C225.380571 241.314286 132.420571 441.739429 73.142857 570.340571V109.714286c0-45.334857 16.096-84.093714 48.285714-116.285715C153.618286-38.761143 192.381714-54.857143 237.714286-54.857143h548.571428c45.332571 0 84.096 16.096 116.285715 48.285714C934.761143 25.620571 950.857143 64.379429 950.857143 109.714286v54.107428c-67.339429-24.630857-283.782857-102.336-300.724572-107.469714zM280.269714 256.155429c8.912 2.038857 175.929143 42.011429 179.494857 42.774857s5.856 2.802286 2.036572 9.419428-222.628571 384.306286-222.628572 384.306286c-2.020571 3.467429-1.444571 4.621714-6.932571 4.333714-4.893714-0.258286-128.701714-11.305143-157.366857-13.700571a174.987429 174.987429 0 0 1-1.579429-18.276572c29.099429-59.570286 196.109714-404.011429 197.046857-406.818285 1.019429-3.056 1.017143-4.075429 9.929143-2.038857z"  horiz-adv-x="1024" />

    
    <glyph glyph-name="list1" unicode="&#58905;" d="M168.57 75.4c0-14.34-9.56-23.89-23.89-23.89H96.89c-14.34 0-23.89 9.55-23.89 23.89v47.79c0 14.34 9.56 23.89 23.89 23.89h47.79c14.34 0 23.89-9.56 23.89-23.89z m0 284.33c0-14.34-9.56-23.89-23.89-23.89H96.89c-14.34 0-23.89 9.56-23.89 23.89v47.79c0 14.34 9.56 23.89 23.89 23.89h47.79c14.34 0 23.89-9.56 23.89-23.89z m0 286.72c0-14.34-9.56-23.89-23.89-23.89H96.89c-14.34 0-23.89 9.56-23.89 23.89v47.79c0 14.34 9.56 23.89 23.89 23.89h47.79c14.34 0 23.89-9.56 23.89-23.89zM969 75.4c0-14.34-7.17-23.89-21.5-23.89H314.32c-14.34 0-23.89 9.56-23.89 23.89v47.79c0 14.34 9.56 23.89 23.89 23.89H945.1c14.34 0 23.89-9.56 23.89-23.89z m0 284.33c0-14.34-7.17-23.89-21.5-23.89H314.32c-14.34 0-23.89 9.56-23.89 23.89v47.79c0 14.34 9.56 23.89 23.89 23.89H945.1c14.34 0 23.89-9.56 23.89-23.89z m0 286.72c0-14.34-7.17-23.89-21.5-23.89H314.32c-14.34 0-23.89 9.56-23.89 23.89v47.79c0 14.34 9.56 23.89 23.89 23.89H945.1c14.34 0 23.89-9.56 23.89-23.89z"  horiz-adv-x="1024" />

    
    <glyph glyph-name="mac" unicode="&#58896;" d="M876.736 175.232c-1.152-3.392-18.688-64.768-61.952-127.872-37.44-54.464-76.096-109.312-137.216-110.272-60.096-1.088-79.296 35.84-147.968 35.84-68.48 0-90.048-34.88-146.816-36.864-58.688-2.432-103.872 59.456-141.44 113.6C164.672 160.64 105.6 364.096 184.832 500.48c38.976 68.224 109.12 111.616 185.408 112.768 57.536 1.088 112.256-38.976 147.2-38.976 35.904 0 102.08 48.448 171.968 41.216 29.248-1.216 110.976-12.224 163.776-88.576-4.16-2.816-97.856-58.112-96.896-170.688 1.408-135.936 119.232-180.48 120.448-180.992z m-233.088 513.088c31.488 38.4 52.224 91.2 46.72 143.68-44.928-1.792-99.712-29.888-132.288-68.032-28.736-33.344-54.144-86.976-47.04-138.816 49.92-3.072 101.248 26.176 132.608 63.168z"  horiz-adv-x="1024" />

    
    <glyph glyph-name="view" unicode="&#58889;" d="M511.998 175.488c152.428 0 359.182 155.773 373.55 198.595-5.607 46.914-200.198 216.57-373.55 216.57-164.905 0-373.65-135.134-373.67-217.605 4.34-40.627 204.655-197.56 373.67-197.56m0-41.535c-173.163 0-415.166 162.973-415.166 238.74 0 120.066 243.452 259.501 415.166 259.501 187.905 0 415.17-182.613 415.17-259.5 0-63.976-248.398-238.74-415.17-238.74z m0 0M511.998 279.28c57.209 0 103.795 46.586 103.795 103.794s-46.586 103.79-103.795 103.79-103.79-46.58-103.79-103.79 46.58-103.795 103.79-103.795m0-41.536c-80.272 0-145.33 65.06-145.33 145.331 0 80.272 65.058 145.33 145.33 145.33 80.276 0 145.33-65.058 145.33-145.33 0-80.271-65.054-145.33-145.33-145.33z m0 0"  horiz-adv-x="1024" />

    
    <glyph glyph-name="APP" unicode="&#59020;" d="M61.577 274.7V395.508c0 11.07 9.09 20.123 20.229 20.123h213.477l-92.945-161.063H81.805c-11.138 0-20.228 9.023-20.228 20.132z m152.068-247.375l-68.127-46.157c-9.167-6.24-15.65-2.279-14.379 8.715l9.09 78.98c1.266 10.993 10.187 15.497 19.832 9.99l52.725-30.12c9.631-5.527 10.027-15.206 0.86-21.408z m16.36 44.513l-52.724 30.12c-9.64 5.526-13.037 17.872-7.43 27.474L413.996 552.64c5.535 9.62 18.026 12.994 27.657 7.419l52.725-30.06c9.64-5.575 12.963-17.931 7.428-27.513l-244.14-423.247c-5.529-9.602-18.025-12.888-27.66-7.4z m185.816 182.73L508.76 415.63h53.517l75.475-161.062H415.82zM718.528 206.5c-21.107 10.53-126.229 252.003-153.16 315.007-26.962 63.002-108.376 230.71-82.044 243.751 18.74 9.361 85.994-122.701 136.41-201.972 50.349-79.29 155.634-283.715 168.588-306.997 12.886-23.338-12.404-42.794-26.469-48.609-14.075-5.837-22.228-11.633-43.325-1.18z m69.079-110.995l-31.762 49.962c-6.57 10.376-3.159 23.205 7.496 28.69l30.274 15.497c10.676 5.428 24.035 1.043 29.715-9.835l25.058-47.972c5.699-10.856 1.815-24.787-8.463-30.91l-21.648-12.888c-10.277-6.222-24.1-2.84-30.67 7.456z m116.896-131.029c-6.636 21.156-57.303 22.567-79.985 54.445-22.76 31.763-3.95 48.125 3.95 55.68 92.004 51.586 76.035-110.125 76.035-110.125zM951.847 274.7c0-11.11-9.09-20.132-20.229-20.132H824.76c-1.178 6.2-3.092 12.422-6.318 18.239-2.783 4.965-9.815 18.314-19.61 36.958-14.142 26.893-34.458 65.36-56.202 105.865h188.98c11.138 0 20.228-9.052 20.228-20.123V274.7h0.01z"  horiz-adv-x="1024" />

    
    <glyph glyph-name="javascript" unicode="&#59212;" d="M0 896h1024v-1024H0V896z m940.16-779.776c-7.488 46.72-37.952 85.952-128.192 122.56-31.36 14.72-66.24 24.96-76.672 48.64-3.84 14.08-4.48 21.76-1.92 30.08 6.4 27.52 39.04 35.84 64.64 28.16 16.64-5.12 32-17.92 41.6-38.4 44.16 28.8 44.16 28.8 74.88 48-11.52 17.92-17.28 25.6-24.96 33.28-26.88 30.08-62.72 45.44-120.96 44.16l-30.08-3.84c-28.8-7.04-56.32-22.4-72.96-42.88-48.64-55.04-34.56-151.04 24.32-190.72 58.24-43.52 143.36-53.12 154.24-94.08 10.24-49.92-37.12-65.92-83.84-60.16-34.56 7.68-53.76 24.96-74.88 56.96l-78.08-44.8c8.96-20.48 19.2-29.44 34.56-47.36 74.24-74.88 259.84-71.04 293.12 42.88 1.28 3.84 10.24 30.08 3.2 70.4zM556.8 425.344H460.928c0-82.688-0.384-164.864-0.384-247.68 0-52.608 2.688-100.864-5.888-115.648-14.08-29.44-50.304-25.6-66.816-20.48-16.896 8.32-25.472 19.84-35.392 36.48-2.688 4.48-4.736 8.32-5.44 8.32l-77.888-48c12.992-26.88 32-49.92 56.512-64.64 36.48-21.76 85.504-28.8 136.832-17.28 33.408 9.6 62.208 29.44 77.248 60.16 21.76 39.68 17.152 88.32 16.96 142.72 0.512 87.68 0 175.36 0 263.68z"  horiz-adv-x="1024" />

    
    <glyph glyph-name="vuejs" unicode="&#59280;" d="M512 622.848L630.4 827.52h188.8l-0.128-0.256H1024L512-59.52 0 827.328h204.928V827.52h188.8L512 622.72z"  horiz-adv-x="1024" />

    
    <glyph glyph-name="project" unicode="&#58935;" d="M751.063 693.375c-7.031 1.758-12.305 1.758-19.336 1.758 7.031 0 14.063 0 19.336-1.758z m22.851-7.031c-1.758 0-1.758 1.758-3.516 1.758 1.758 0 3.516-1.758 3.516-1.758z m40.43-33.399c-1.758 1.758-3.516 5.273-5.273 7.031 1.758-3.516 3.516-5.273 5.273-7.031zM849.5 120.328h-24.609V614.273c0 7.031 0 12.305-1.758 19.336 1.758-5.273 1.758-12.305 1.758-19.336v-493.945H849.5z m15.82 5.274c-1.758-1.758-5.273-1.758-7.031-3.516 1.758 1.758 5.273 1.758 7.031 3.516z m40.43 657.421c-17.578 14.063-40.43 21.094-63.281 21.094H292.274c-24.609 0-47.461-7.031-63.281-21.094-17.578-15.82-28.125-36.914-28.125-58.008v-28.125H183.29c-24.609 0-47.461-7.031-63.281-21.094-19.336-17.578-29.883-38.672-29.883-61.523v-571.289c0-22.852 10.547-43.945 28.125-58.008s40.43-21.094 63.281-21.094H729.97c24.609 0 47.461 7.031 63.281 21.094 17.578 15.82 29.883 36.914 29.883 58.008v28.125h15.82c24.609 0 47.461 7.031 63.281 21.094 17.578 15.82 28.125 36.914 28.125 58.008V723.258c3.516 22.852-7.031 43.945-24.609 59.766zM777.43 44.742c0-17.578-21.094-31.641-45.703-31.641H183.289c-24.609 0-45.703 14.063-45.703 31.641V614.273c0 17.578 21.094 31.641 45.703 31.641h548.438c24.609 0 45.703-14.063 45.703-31.641v-569.531z m108.984 108.985c0-7.031-3.516-14.063-8.789-19.336l-1.758-1.758c-1.758-1.758-3.516-3.516-5.273-3.516 0 0-1.758 0-1.758-1.758s-1.758 0-1.758-1.758c0 0-1.758 0-1.758-1.758h-1.758c-1.758-1.758-5.273-1.758-7.031-3.516h-1.758-1.758c-1.758 0-3.516 0-5.273-1.758h-24.609V614.272c0 7.031 0 12.305-1.758 19.336 0 1.758 0 1.758-1.758 3.516 0 1.758 0 1.758-1.758 3.516 0 1.758 0 1.758-1.758 3.516 0 1.758-1.758 1.758-1.758 3.516-1.758 1.758-1.758 3.516-3.516 5.273-1.758 1.758-3.516 5.273-5.273 7.031-1.758 3.516-5.273 5.273-7.031 8.789-1.758 1.758-3.516 3.516-7.031 5.273l-3.516 3.516-1.758 1.758c-1.758 0-1.758 1.758-3.516 1.758-3.516 1.758-8.789 5.273-12.305 7.031-1.758 0-1.758 1.758-3.516 1.758s-3.516 1.758-5.273 1.758h-1.758c-3.516 0-5.273 1.758-8.789 1.758h-5.274c-7.031 1.758-12.305 1.758-19.336 1.758H246.568v28.125c0 3.516 0 7.031 1.758 10.547s3.516 5.273 7.031 8.789c8.789 8.789 21.094 14.063 36.914 14.063h548.438c24.609 0 45.703-14.063 45.703-31.641v-571.289zM213.172 596.695h353.32v-47.461h-353.32v47.461z m430.664-24.609c0 14.063 10.547 24.609 24.609 26.367 14.063 0 24.609-10.547 26.367-24.609v-1.758c0-14.063-10.547-24.609-24.609-26.367-14.063 0-24.609 10.547-26.367 24.609v1.758z m-506.25-65.039H777.43v-47.461H137.586v47.461z"  horiz-adv-x="1024" />

    
    <glyph glyph-name="chrome" unicode="&#58975;" d="M258.016 448.992L112 703.008Q183.008 793.024 288 844.512T512 896q138.016 0 255.488-68t185.504-183.008H534.976q-11.008 0.992-23.008 0.992-90.016 0-160.992-55.488t-92.992-141.504z m436.992 122.016h294.016q35.008-90.016 35.008-187.008 0-103.008-40-197.504t-107.488-163.008-161.504-109.504-196.992-42.016l208.992 363.008q47.008 67.008 47.008 148.992 0 110.016-79.008 187.008zM326.016 384q0 76.992 54.496 131.488T512 569.984t131.488-54.496T697.984 384t-54.496-131.488T512 198.016t-131.488 54.496T326.016 384z m256-252.992l-146.016-252.992q-122.016 18.016-222.016 88.992t-156.992 180.992T0 384q0 135.008 66.016 251.008l208.992-362.016q32-68 96-109.504T512 121.984q36 0 70.016 8.992z"  horiz-adv-x="1024" />

    
    <glyph glyph-name="ie" unicode="&#59002;" d="M878.016 548q24 66.016 22.016 118.016-3.008 56.992-36.992 91.008-32.992 32.992-111.488 27.488t-173.504-47.488q-12.992 0.992-27.008 0.992-64.992 0-126.016-20.992-58.016-20.992-107.008-60-100.992-80-132-203.008l-7.008-28 16.992 22.016q68.992 88.992 150.016 136-22.016-20.992-24.992-24.992-72.992-72.992-126.016-159.008-48.992-80-75.008-160-24.992-75.008-24-135.008t28-88q36.992-36 99.008-36 68.992 0 160 44 78.016-39.008 168-39.008 120.992 0 219.008 70.016t136.992 184l3.008 8h-212.992l-0.992-3.008q-20.992-38.016-58.016-60t-80.512-22.016-80.512 22.016-56.992 60q-18.016 32-19.008 68.992h523.008l0.992 4.992q2.016 20 2.016 43.008 0 100-48.992 186.016zM200.992 221.984q44.992-111.008 146.016-176.992-54.016-23.008-95.008-26.016-44.992-3.008-67.008 20-23.008 23.008-19.008 71.008t35.008 112zM859.008 577.984q-30.016 42.016-70.016 75.008-39.008 32-84.992 52.992 108 42.016 148.992 0.992 36.992-38.016 6.016-128.992z m-456.992-154.976q4.992 56.992 48 96t100.992 39.008 100.512-39.008 48.512-96h-298.016z"  horiz-adv-x="1024" />

    
    <glyph glyph-name="like" unicode="&#58962;" d="M248.181-64.5c-1.422 0-2.912 0.13-4.687 0.411l-0.469 0.074-140.662 0.063-0.502-0.084c-1.848-0.311-3.486-0.464-5.006-0.464-17.363 0-31.487 14.772-31.487 32.928l0.344 475.005c0 18.164 14.129 32.936 31.495 32.936 1.163 0 2.411-0.09 3.816-0.275l0.401-0.052 132.292 0.321v1.267c117.047 11.801 207.019 112.118 210.327 235.801l0.01 0.386-0.033 0.386c-0.325 3.832-0.475 6.953-0.475 9.826 0 59.813 46.527 108.471 103.718 108.471 23.918 0 46.377-8.284 64.951-23.956 18.033-15.217 30.825-36.539 36.015-60.04l1.294-5.861 0.467 0.063c5.447-27.5 8.205-55.427 8.205-83.113 0-46.06-7.33-91.333-21.786-134.565l-2.948-8.817 220.104-0.249c1.436 0 2.945-0.135 4.754-0.425l0.354-0.056 0.359-0.015c35.366-1.453 67.552-20.985 86.098-52.247 11.855-19.98 17.238-42.965 15.57-66.472l-0.037-0.512 0.04-0.513c0.294-3.812-0.016-7.552-0.917-11.12l-0.055-0.232-81.726-377.257c-0.912-3.545-2.428-6.946-4.506-10.109l-0.248-0.377-0.197-0.41c-8.576-17.908-21.546-32.985-37.504-43.601-15.115-10.046-32.389-15.842-50.294-16.921v0.05l-531.935 0.233-0.465-0.073c-1.785-0.276-3.271-0.405-4.675-0.405z m244.178 687.565c-15.325-49.004-42.545-93.643-78.714-129.094-36.3-35.58-80.837-61.12-128.799-73.861l-4.779-1.269-0.373-417.011 499.393-0.212c1.218 0 2.543-0.104 4.05-0.317l0.845-0.119 0.846 0.117c6.023 0.839 11.682 2.997 16.816 6.413 5.206 3.458 9.553 8.017 12.812 13.395l1.727-1.014 1.977 8.621 80.029 369.423-0.256 0.079c1.62 10.572-0.417 21.446-5.881 30.658-7.086 11.952-18.848 19.562-32.04 20.949v0.173l-6.346 0.117-267.016 0.29c-17.369 0-31.493 14.775-31.493 32.936 0 5.053 1.106 9.951 3.289 14.559l2.237 4.728-0.301 0.257c13.5 27.33 23.401 56.501 29.483 86.858l0.244-0.007 1.223 5.195c0.214 0.905 5.217 22.629 5.151 63.945-0.052 32.737-5.597 62.151-5.833 63.388l-0.077 0.421c0 24.06-18.716 43.634-41.722 43.634-21.717 0-39.613-17.434-41.556-39.619l-0.673-0.01 0.128-6.682c0.006-0.302 0.512-30.61-5.182-61.538-1.673-9.089-3.957-18.568-6.807-28.263l-0.149 0.075-2.253-7.215zM128.737 410.259l-0.368-408.367 88.354-0.04 0.296 408.612-88.282-0.205z"  horiz-adv-x="1024" />

    
    <glyph glyph-name="tubiaozhizuomoban" unicode="&#58883;" d="M63.3 836.7h896.1v-896.1H63.3zM352.1 222.2H143.8V571.5h198.1v-38.8H190.8v-108.3h138.9v-38.8H190.8V261h161.4v-38.8zM616.2 320.3c0-31.3-9.9-56.2-29.6-74.6-19.8-18.4-46.7-27.6-80.7-27.6-34.1 0-60.6 9.5-79.7 28.6s-28.6 42.9-28.6 71.5v14.3h47v-12.3c0-20.4 6.1-36.1 18.4-47 12.3-10.9 26.6-16.3 42.9-16.3 21.8 0 37.8 5.8 48 17.4 10.2 11.6 15.3 25.5 15.3 41.9 0 13.6-6.1 26.2-18.4 37.8-12.3 11.6-30 22.1-53.1 31.7-32.7 12.3-56.2 25.9-70.5 40.9-14.3 15-21.4 32.7-21.4 53.1 0 28.6 9.9 51.7 29.6 69.4 19.7 17.7 43.2 26.6 70.5 26.6 35.4 0 60.9-10.6 76.6-31.7 15.6-21.1 23.5-43.9 23.5-68.4h-47c1.3 15-2.7 28.6-12.3 40.9-9.5 12.3-23.2 18.4-40.9 18.4-16.3 0-29.3-4.4-38.8-13.3-9.5-8.9-14.3-20.8-14.3-35.7 0-12.3 3.7-22.8 11.2-31.7 7.5-8.9 26.9-19.4 58.2-31.7 29.9-12.3 53.1-26.9 69.4-43.9 16.5-17.2 24.7-36.6 24.7-58.3zM663.8 343.7c1.3 19.7 5.1 36.4 11.2 50 6.1 13.6 15.3 30.6 27.6 51.1l83.7 130.7h47l-85.8-134.8c36.8 9.5 66 8.2 87.8-4.1 21.8-12.3 36.4-26.2 43.9-41.9s11.6-32.7 12.3-51.1c0.7-18.4-2-36.4-8.2-54.1-6.1-17.7-17-33.7-32.7-48-15.7-14.3-37.5-22.1-65.4-23.5-27.9-1.4-51.8 3.7-71.5 15.3-19.8 11.6-33.4 27.9-40.9 49-7.4 21.3-10.4 41.7-9 61.4z m63.3-67.4c12.3-13 28.6-20.1 49-21.4 20.4-1.4 37.4 5.4 51.1 20.4 13.6 15 20.4 36.8 20.4 65.4s-8.5 48.3-25.5 59.2c-17 10.9-36.1 15-57.2 12.3-21.1-2.7-36.4-13-46-30.6-9.5-17.7-13.6-36.4-12.3-56.2 1.4-19.8 8.2-36.1 20.5-49.1z"  horiz-adv-x="1024" />

    
    <glyph glyph-name="social-css" unicode="&#59561;" d="M512.564 217.024zM128 832l69.892-806.438L511.534-64l314.518 89.7L896 832H128z m581.352-669.796l-197.214-56.25-196.916 56.496L301.728 318h96.506l6.866-79.124 107.172-30.326 0.264-0.546h0.068l106.934 29.704L630.762 366H406l-8 100h241.292l8.792 102H280l-8 98h481.16l-43.808-503.796z"  horiz-adv-x="1024" />

    
    <glyph glyph-name="react" unicode="&#58948;" d="M514.436 688.57l0.393 0.45c18.711 17.981 38.49 34.837 59.673 49.84a335.035 335.035 0 0 0 49.109 29.443c6.181 2.809 12.362 5.619 18.711 7.866a179.9 179.9 0 0 0 44.783 10.676h10.226c2.641 0 5.282 0 7.867-0.562a85.396 85.396 0 0 0 16.688-3.371c4.495-1.686 8.99-3.371 13.485-5.619 2.81-1.686 5.057-3.371 7.867-5.057 4.495-3.371 8.428-6.743 11.8-10.676 2.81-3.933 6.181-7.305 8.428-11.238 5.619-8.99 10.114-18.542 13.485-28.095 1.124-2.809 1.686-5.619 2.81-8.99 1.124-3.933 1.686-7.866 2.809-11.8 1.124-5.057 1.686-10.114 2.809-15.171l1.686-19.104c0.562-7.866 0.562-16.295 0.562-24.723 0-10.676-0.562-21.352-1.686-32.028-1.686-13.485-3.371-26.409-5.619-39.332-1.686-7.866-2.81-15.733-4.495-23.599l-3.371-13.485 7.305-2.248c13.485-3.933 26.409-8.428 39.894-13.485 10.114-3.933 20.79-8.428 30.904-13.485 8.99-4.495 17.981-8.99 26.409-14.047 9.552-5.619 18.542-11.238 26.971-17.981 7.305-5.619 14.609-11.8 21.352-17.981 5.057-5.057 9.552-10.114 14.047-15.733 3.371-4.495 6.743-9.552 9.552-14.609 3.933-7.305 6.743-14.609 8.99-22.476 1.124-4.495 1.686-9.552 1.686-14.609 0-2.809 0-6.181-0.562-9.552-0.562-5.057-1.686-10.676-3.371-15.733-1.124-5.057-3.371-9.552-5.619-14.047-5.057-9.552-11.238-18.542-18.542-26.971-2.248-2.809-4.495-5.057-6.743-7.305-3.371-3.371-6.181-6.181-9.552-8.99-3.933-3.371-8.428-7.305-12.923-10.114-5.619-4.495-11.238-8.428-16.857-11.8-7.305-5.057-15.171-9.552-23.038-13.485-10.114-5.057-19.666-10.114-29.78-14.609a506.554 506.554 0 0 0-30.904-12.362c-8.99-3.371-17.981-6.181-26.971-8.99l-2.809-1.124c1.124-4.495 2.248-8.99 2.809-13.485 1.124-6.743 2.809-13.485 3.933-20.228 2.248-13.485 4.495-27.533 5.619-41.018 0.562-10.676 1.124-21.352 1.124-31.466a347.946 347.946 0 0 0-3.371-44.389c-1.124-5.057-1.686-10.676-2.81-15.733l-3.371-12.362c-2.248-6.743-5.057-14.047-7.867-20.79-2.81-5.057-5.619-10.676-8.99-15.733-3.371-5.057-7.305-9.552-11.8-14.047-5.057-5.057-10.676-8.99-16.295-12.362-4.495-2.248-9.552-4.495-14.047-5.619-7.867-2.248-15.733-3.371-23.599-3.821-10.676-0.337-21.352 1.124-32.028 3.371a154.021 154.021 0 0 0-19.104 5.619c-7.305 2.248-14.047 5.282-20.79 8.428-8.428 3.708-16.295 7.867-24.161 12.362-8.99 5.057-17.981 10.676-26.409 16.857-21.914 15.171-42.704 32.59-61.808 51.132l-4.495-3.933c-8.99-8.428-17.981-16.295-26.971-24.161-9.552-7.305-19.104-14.609-29.218-21.914-8.99-6.181-17.981-11.8-27.533-17.419-8.99-5.057-18.542-9.552-27.533-13.485-6.743-2.809-13.485-5.619-20.228-7.866-6.743-2.023-12.924-3.933-19.666-5.057-10.676-2.248-20.79-3.371-31.466-3.147-8.428 0-16.857 1.124-24.723 3.933a53.927 53.927 0 0 0-14.609 6.181c-3.371 1.686-6.181 3.933-8.99 6.181a50.728 50.728 0 0 0-5.619 5.057 13.147 13.147 0 0 0-3.933 3.933 96.63 96.63 0 0 0-18.542 28.656l-1.686 5.057c-0.562 2.248-1.686 4.495-2.248 6.181-1.124 2.809-1.686 6.181-2.809 8.99-1.124 3.933-1.686 7.305-2.809 11.238-1.124 5.057-2.248 9.777-2.809 14.778-0.562 6.181-1.686 12.923-1.686 19.104-0.562 8.428-0.562 16.295-0.562 24.723 0 10.676 0.562 21.352 1.686 31.466 1.124 13.485 3.371 26.409 5.619 39.894l6.743 32.028-11.238 3.371a534.263 534.263 0 0 0-39.332 14.047 272.015 272.015 0 0 0-26.409 11.8c-7.866 3.933-15.733 7.866-23.599 12.923a253.675 253.675 0 0 0-50.458 37.085c2.191 11.912-2.866 17.531-7.361 23.15a137.138 137.138 0 0 0-10.676 15.845c-2.809 5.057-5.057 10.451-7.08 15.958-0.562 2.472-1.349 5.057-1.91 7.529a65.744 65.744 0 0 0-1.798 25.847c0.337 2.472 0.73 5.057 1.292 7.473l1.629 6.012c3.596 11.8 9.833 22.813 17.419 32.59a136.754 136.754 0 0 0 14.328 16.239l9.552 8.428c4.214 3.371 8.428 6.743 12.811 10.114 5.619 3.933 11.463 7.866 17.419 11.8 7.305 4.495 14.946 8.99 22.7 12.924 9.889 5.057 20.003 9.552 30.342 14.047 18.542 7.866 37.534 14.047 56.863 19.666l4.495 1.124c-2.809 11.8-5.619 23.599-7.867 35.399-2.248 12.362-4.495 25.285-5.619 38.209-1.124 10.114-1.686 20.228-2.248 30.904-0.562 7.866 0 16.295 0 24.723 0 6.181 0.562 12.362 1.686 18.542a141.154 141.154 0 0 0 5.057 26.971c0.562 2.809 1.686 6.181 2.809 8.99l2.248 5.619c0.562 1.686 1.124 3.371 2.248 5.057 4.495 10.114 10.114 20.228 17.981 28.656 1.686 1.686 3.371 3.371 5.619 5.057 1.686 1.686 3.371 2.809 5.057 4.495 2.248 1.686 5.057 3.371 7.867 5.057 4.495 2.248 8.99 4.495 14.047 5.619 5.619 1.686 11.238 2.809 16.857 3.371 1.686 0 3.371 0.562 5.057 0.562h8.428l6.181-0.562a227.403 227.403 0 0 0 26.971-5.057c5.619-1.686 11.8-3.371 17.419-5.619 6.181-2.248 11.8-5.057 17.981-7.866 8.99-4.495 17.419-8.99 25.847-14.047 8.99-5.619 17.981-11.238 26.971-17.419 10.114-7.305 20.228-15.171 30.342-23.599 7.866-6.743 15.171-13.485 23.038-20.228l5.057-5.057 1.57 3.428z m225.15-460.639a857.342 857.342 0 0 0-114.795-18.149c-2.248-0.562-4.495-0.562-6.743-1.124-10.114-15.171-21.352-30.342-32.59-44.389-11.8-15.733-24.161-30.904-37.085-44.951l-5.619-6.181c16.857-16.295 34.275-31.466 53.38-44.951 7.867-5.619 15.733-10.676 23.599-15.733 6.743-4.495 14.047-7.867 21.352-11.8 6.181-2.81 12.362-5.619 19.104-7.867 5.057-1.686 10.114-3.371 15.733-4.495 4.495-1.124 8.99-2.248 13.485-2.248 3.933-0.562 7.867-0.562 11.238-0.562 5.619 0 11.8 1.124 16.857 3.371l4.495 2.248a26.398 26.398 0 0 1 8.428 7.305c3.371 3.933 6.181 8.428 8.99 12.923 1.124 1.124 1.686 2.809 2.809 4.495l2.809 6.743c1.124 2.809 2.248 5.619 2.81 8.99 1.124 3.933 2.248 7.305 2.809 11.238 1.124 5.057 1.686 10.114 2.81 15.171 1.124 5.057 1.124 10.676 1.686 16.295 0.562 12.362 0.562 24.723-0.562 37.085-0.562 11.8-2.248 24.161-3.933 35.961-1.686 9.552-3.371 19.666-5.619 29.218l-2.248 9.552-3.2 1.855z m-449.12-1.686l-3.371-16.295a478.57 478.57 0 0 1-8.428-56.583c-1.124-12.586-1.124-25.285-1.124-37.872 0.562-5.057 0.562-10.676 1.124-16.295 0.562-5.057 1.686-9.552 2.248-14.609 0.562-3.371 1.686-7.305 2.248-10.676 1.124-2.809 1.686-5.619 2.809-8.428 1.124-2.248 1.686-4.495 2.809-6.743l2.809-5.057c0.562-1.124 1.124-2.248 2.248-3.371l1.686-2.809 1.686-2.248c3.371-4.495 6.743-8.428 11.8-11.238l3.371-1.686c2.809-1.124 5.057-2.248 7.866-2.809 3.933-0.562 7.305-1.124 11.238-1.124s7.866 0 11.238 0.562c4.495 0.562 8.99 1.686 13.485 2.248 5.619 1.124 10.676 2.809 15.733 4.495a241.28 241.28 0 0 1 41.58 19.666c8.428 5.057 16.857 10.676 25.285 16.295 8.428 6.181 16.857 12.362 24.723 19.104 5.057 3.933 9.552 7.866 14.609 12.362 3.933 3.933 8.428 7.305 12.362 11.238l1.686 1.686-9.552 10.676c-12.924 14.609-25.285 29.78-37.647 44.951a1051.196 1051.196 0 0 0-29.78 39.894h-3.371a1454.656 1454.656 0 0 0-51.694 5.619c-15.733 2.248-31.466 5.057-47.199 7.866l-18.542 3.933-3.935-2.752z m278.136-20.341a1296.033 1296.033 0 0 0-101.141-0.393l-5.619 0.169 11.8-14.722c11.238-13.823 22.476-27.308 34.275-40.456 2.809-3.203 5.619-6.406 8.99-9.552l4.495 5.057c11.8 13.317 23.038 27.139 34.275 41.299 4.495 5.619 9.552 11.8 14.047 18.542l-1.122 0.056z m28.095 323.763a1028.303 1028.303 0 0 1-79.227 3.09h-3.933c-8.428 0-16.295-0.112-24.723-0.337-18.542 0-37.085-1.124-55.627-2.248-10.676-15.733-20.79-31.466-30.904-47.761-11.238-18.542-21.914-37.647-32.028-56.751-6.181-11.8-12.362-24.161-18.542-36.523 6.743-13.485 13.485-26.971 20.79-39.894 10.676-19.666 21.914-38.771 33.152-57.875 9.552-14.609 19.104-29.78 28.656-43.828l33.714-1.686c16.295-0.562 32.028-0.562 48.323-0.562 27.533 0 55.065 1.124 82.036 2.809 9.552 14.047 18.542 28.656 27.533 42.704 19.666 32.59 38.209 65.741 54.504 100.017-5.619 11.8-11.238 23.038-17.419 34.275-7.866 15.171-16.295 29.78-24.723 43.828-11.8 20.228-24.161 40.456-37.647 60.122l-2.248 3.371-1.687-2.751zM330.36 342.557c-3.933-10.114-8.428-20.565-12.362-30.904a781.88 781.88 0 0 1-16.857-48.323c9.552-2.248 19.666-4.046 29.218-5.731 14.047-2.472 28.656-4.495 42.704-6.293 3.933-0.562 7.866-0.955 11.8-1.349-6.181 9.721-12.362 19.554-17.981 29.443-12.362 20.678-24.161 41.805-35.399 63.213l-1.123-0.056z m369.163 1.46c-5.619-11.069-11.8-21.914-17.419-32.871-6.743-12.137-13.485-24.161-20.79-36.186-4.495-8.428-9.552-16.295-14.609-24.723l8.428 1.124c14.047 1.686 28.095 3.933 41.58 6.181 11.238 1.686 23.038 3.933 34.275 6.743a490.892 490.892 0 0 1-16.295 45.513c-3.933 11.238-8.99 22.476-13.485 33.152l-1.685 1.067z m-434.904 157.33l-12.362-3.708a438.06 438.06 0 0 1-64.056-25.173 357.5 357.5 0 0 1-24.723-13.485c-6.743-4.214-14.047-8.878-20.228-13.935-5.057-3.708-9.552-7.642-14.047-11.912-3.933-3.54-7.305-7.305-10.676-11.238-2.248-3.09-4.495-6.181-6.743-9.552-1.686-2.809-3.371-5.619-4.495-8.653a33.975 33.975 0 0 1-2.809-12.924v-3.371c0-4.945 1.686-9.889 3.371-14.441l1.124-2.416 1.686-2.922 2.248-3.933 3.371-4.776 4.495-5.394c1.686-2.248 3.933-4.383 5.619-6.462 2.809-2.585 5.057-5.057 7.866-7.529 3.371-2.81 6.181-5.45 9.552-8.035 4.495-3.371 8.99-6.743 13.485-9.889 5.619-3.933 11.238-7.867 17.419-11.238 7.867-4.495 15.733-8.428 23.599-12.362 9.552-4.495 19.666-8.99 29.218-12.924 8.99-3.371 17.419-6.743 25.847-8.99l12.924-3.933 11.8 35.399c7.305 19.666 14.609 38.771 23.038 57.875l10.114 21.352-9.552 21.352c-8.428 19.104-16.295 39.332-23.599 58.999-3.933 10.676-7.867 21.914-11.238 33.152l-2.248 1.066z m500.646-0.562a540.407 540.407 0 0 0-9.552-28.825 596.299 596.299 0 0 0-23.599-59.561l-10.676-23.88 13.485-29.218c8.428-18.261 15.733-36.748 22.476-55.459a290.203 290.203 0 0 0 10.114-29.218l6.743 2.023c7.867 2.248 15.171 4.495 22.476 7.305a301.588 301.588 0 0 1 43.828 18.542c8.99 3.933 17.419 8.99 25.285 14.047 7.305 3.933 14.047 8.99 20.79 14.047 5.057 3.371 9.552 7.305 14.047 11.8 3.933 3.371 7.867 7.867 11.238 11.8 2.809 2.809 5.057 6.181 7.305 9.552 1.686 2.809 3.371 5.619 4.495 8.428 2.248 3.933 3.371 8.428 3.371 13.485 0.562 1.124 0.562 2.248 0 3.933 0 2.809-0.562 6.181-1.686 8.99a37.243 37.243 0 0 1-5.057 10.676l-1.686 3.371-2.809 3.933c-1.124 1.686-2.81 3.371-3.933 5.057-1.686 1.686-3.371 3.933-5.619 6.181-2.248 2.248-5.057 4.495-7.305 6.743-3.371 2.809-6.743 5.619-10.676 8.428-3.933 3.371-8.428 6.181-12.362 8.99-5.619 3.933-11.238 7.305-17.419 10.676a291.635 291.635 0 0 1-23.038 11.238c-8.99 4.495-18.542 7.866-28.095 11.8-12.924 5.057-26.409 8.99-39.894 12.924l-2.247 2.192zM514.043 468.87c44.392 0 80.379-35.987 80.379-80.379s-35.987-80.379-80.379-80.379-80.379 35.987-80.379 80.379 35.987 80.379 80.379 80.379z m131.258 55.627c9.889-15.396 19.385-31.129 28.544-47.03 8.428-14.722 16.744-29.612 24.723-44.67a1017.764 1017.764 0 0 1 13.766 34.388c5.057 14.216 10.114 28.544 14.609 43.041a876.125 876.125 0 0 1-82.598 14.328l0.956-0.057z m-262.404 0.169a868.965 868.965 0 0 1-65.46-10.676c-5.057-1.011-10.676-2.135-15.733-3.371 5.057-15.452 10.114-30.792 15.733-45.907 3.933-10.676 8.428-21.352 12.924-31.859 10.114 19.104 20.79 38.771 32.028 57.313 7.305 11.238 14.047 23.038 21.352 34.275l-0.844 0.225z m354.723 22.588l1.686 7.473c2.248 9.777 3.933 19.554 5.619 29.443 2.248 12.811 3.371 25.847 4.495 38.771 0.562 12.643 1.124 25.398 0.562 38.096-0.562 5.731-0.562 11.519-1.686 17.194-0.562 5.057-1.686 9.945-2.248 14.834-1.124 3.821-1.686 7.586-2.81 11.238-1.124 2.809-1.686 5.619-2.809 8.428l-1.629 6.518-2.079 4.383c-0.73 1.349-1.405 2.697-2.248 3.933a23.805 23.805 0 0 1-1.967 3.259c-0.562 0.73-1.011 1.517-1.517 2.248a37.582 37.582 0 0 1-16.295 13.485 40.852 40.852 0 0 1-12.923 2.809c-1.124 0-2.248 0-3.371 0.112h-1.124c-1.124 0-2.248 0-3.933-0.169-3.371 0-6.743-0.562-10.114-1.124-3.933-0.562-8.428-1.686-12.362-2.809l-15.171-5.057c-5.619-2.248-11.238-5.057-17.419-7.866-7.305-3.371-14.047-7.866-21.352-11.8-7.305-4.495-15.171-9.552-22.476-15.171-17.981-12.924-34.837-27.533-51.132-43.266l7.305-7.866c14.609-15.733 28.095-32.028 41.018-48.885 9.552-11.8 18.542-24.723 27.533-37.085l23.038-2.248c16.857-1.686 33.714-4.495 50.57-7.305 15.733-2.248 31.466-5.619 46.637-8.99l-1.798-2.583zM487.634 661.206c-0.843 0.73-1.686 1.461-2.416 2.248a545.615 545.615 0 0 1-48.772 40.4c-8.428 5.731-16.295 11.125-24.723 16.183-7.305 4.383-15.171 8.428-22.476 12.193a312.057 312.057 0 0 1-16.857 7.305 212.52 212.52 0 0 1-15.733 5.057c-3.933 1.124-7.866 1.91-11.8 2.641-3.933 0.562-7.305 1.011-10.676 1.236l-3.933 0.112h-0.562c-1.124 0-2.248 0-3.371-0.112a46.98 46.98 0 0 1-21.352-6.068 32.294 32.294 0 0 1-8.428-7.586c-3.371-3.933-6.181-8.26-8.428-12.811l-2.248-4.72c-1.124-1.686-1.686-3.933-2.248-6.181-1.124-2.809-2.248-5.057-2.809-7.867-0.562-3.371-1.686-7.305-2.248-10.676-0.562-4.495-1.686-8.99-2.248-14.047s-1.124-10.676-1.124-16.295c-0.562-12.362 0-24.723 0.562-37.085 1.124-19.104 4.495-38.209 8.428-57.313 1.124-6.181 2.809-12.362 3.933-18.542 5.619 1.686 11.8 2.809 17.419 3.933 13.485 2.809 27.533 5.619 41.58 7.305 15.171 2.809 30.904 4.495 46.075 6.181l14.047 1.686c8.99 12.924 18.542 25.285 28.095 37.647 12.362 15.733 25.285 31.466 38.771 46.075l10.114 11.238 3.428-2.137z m26.858-27.421l-9.159-10.114a868.842 868.842 0 0 1-34.725-41.468l-9.552-12.362a1079.07 1079.07 0 0 0 47.761 1.292h6.518c17.351-0.025 34.699-0.437 52.031-1.236l-8.99 11.238c-11.8 15.283-24.161 30.23-37.085 44.614l-7.248 8.035h0.449z"  horiz-adv-x="1024" />

    
    <glyph glyph-name="git" unicode="&#58972;" d="M1004.72704 429.6L557.62304 876.672a65.952 65.952 0 0 1-93.28 0L360.47104 772.8l78.176-78.176a96 96 0 0 0 128-128l127.968-127.968a96 96 0 1 0-45.248-45.248l-127.968 127.968a88.832 88.832 0 0 0-9.376-3.872v-266.976a96 96 0 1 0-64 0v266.976a96 96 0 0 0-54.624 131.904L315.22304 727.584 19.31904 431.712a65.952 65.952 0 0 1 0-93.28l447.136-447.072a65.952 65.952 0 0 1 93.28 0l444.992 444.992a65.952 65.952 0 0 1 0 93.28z"  horiz-adv-x="1024" />

    
    <glyph glyph-name="dynamic" unicode="&#59124;" d="M224 95.744V672l576 0.288 0.256-576.32L224 95.776zM800.256 736H223.744A63.808 63.808 0 0 1 160 672.288v-576.544C160 60.608 188.608 32 223.744 32h576.512A63.84 63.84 0 0 1 864 95.744V672.288a63.808 63.808 0 0 1-63.744 63.68zM718.464 453.184l-116.8-116.768-102.176 102.208a32 32 0 0 1-45.152 0.128l-156.832-155.2a32.032 32.032 0 0 1 45.024-45.536l134.208 132.832 102.336-102.336a32.96 32.96 0 0 1 45.248 0l139.392 139.424a31.968 31.968 0 1 1-45.248 45.248"  horiz-adv-x="1024" />

    
    <glyph glyph-name="like_fill" unicode="&#59144;" d="M672 704a222.72 222.72 0 0 1-160-67.68A222.592 222.592 0 0 1 352 704c-123.52 0-224-101.184-224-225.6 0-52.256 18.144-103.2 52.928-145.536l285.952-293.984a62.528 62.528 0 0 1 90.208 0l287.808 296.032A227.136 227.136 0 0 1 896 478.4C896 602.816 795.52 704 672 704"  horiz-adv-x="1024" />

    
    <glyph glyph-name="like1" unicode="&#59143;" d="M797.184 377.504l-284.384-294.016-284.16 292A162.752 162.752 0 0 0 192 478.4C192 567.488 263.808 640 352 640a159.36 159.36 0 0 0 133.28-72.16L512 527.36l26.72 40.48A159.488 159.488 0 0 0 672 640c88.224 0 160-72.512 160-161.6 0-37.536-12.992-74.08-34.816-100.896M672 704a222.72 222.72 0 0 1-160-67.712A222.624 222.624 0 0 1 352 704c-123.52 0-224-101.216-224-225.6 0-52.288 18.176-103.232 52.96-145.536l285.952-293.984a62.4 62.4 0 0 1 45.088-19.168c17.12 0 33.12 6.816 45.12 19.136l287.744 296.064A226.816 226.816 0 0 1 896 478.4C896 602.784 795.52 704 672 704"  horiz-adv-x="1024" />

    
    <glyph glyph-name="jquery" unicode="&#58899;" d="M818.72 148.16c24.192 13.024 29.28 15.328 66.08 42.496-69.376-102.336-136.992-182.976-283.328-193.6-119.072-8.672-224.864 38.496-297.536 89.696-18.368 12.96-40.128 26.912-51.936 37.824-22.208 20.512-58.88 67.36-75.552 94.432-7.872 12.704-15.328 30.688-22.464 45.664-30.944 65.088-51.136 185.536-20.032 275.456 8.096 23.392 24.544 51.424 38.528 70.88 14.496 20.096 24.512 33.504 46.464 56.64-29.632-100.96-27.52-108.064-24.96-150.304 11.776-162.272 126.144-286.048 242.208-355.008 2.624-1.568 40.896-18.048 70.816-28.32 89.664-30.816 230.496-29.632 311.712 14.144zM884.8 393.728c-33.856-75.52-102.112-145.472-236.128-136.96-179.168 11.424-355.776 210.56-278.592 391.968 7.104 16.672 16.8 31.68 27.904 47.296 10.432 14.656 25.216 32.48 42.912 42.464-77.088-160.032 61.44-325.76 184.16-377.792 73.824-31.328 152.288-28.896 259.744 33.024zM596.736 724.288c1.536-135.872 166.752-237.824 297.536-170.016-38.272-98.752-188.736-101.504-273.92-28.32-71.296 61.28-86.88 175.52-18.88 250.272-4.8-25.408-4.896-33.344-4.736-51.936z"  horiz-adv-x="1024" />

    
    <glyph glyph-name="APP1" unicode="&#58890;" d="M503.818 469.299v-75.186h21.515c29.173 0 43.744 12.686 43.744 38.044 0 24.77-14.422 37.14-43.293 37.14h-21.966z m289.35 97.534v209.97c0 30.935-25.07 55.992-55.992 55.992H289.233c-30.921 0-55.992-25.056-55.992-55.992v-209.97H128.794v-349.95H233.24v-223.968c0-30.922 25.07-55.992 55.992-55.992h447.943c30.922 0 55.992 25.07 55.992 55.992V216.883h103.43v349.95h-103.43z m-55.991 195.972v-195.972H289.24l-0.007 195.972h447.944zM621.269 434.112c0-23.854-8.75-42.979-26.246-57.36-17.497-14.393-39.37-21.284-65.642-20.682H503.82v-81.2h-49.622V507.794h80.16c57.932 0 86.912-24.565 86.912-73.68z m-359.233-105.86l-17.14-53.381h-53.84l85.259 232.921h58.35l83.605-232.921h-54.133l-17.442 53.381h-84.659zM513.21-35.08c-15.46 0-28.01 12.536-28.01 27.996s12.55 27.995 28.01 27.995 27.996-12.535 27.996-27.995-12.536-27.996-27.996-27.996z m223.968 83.988H289.233l0.007 167.976h447.936v-167.976z m53.777 327.846c-17.484-14.394-39.37-21.285-65.63-20.683h-25.562v-81.2H650.14V507.794h80.133c57.96 0 86.914-24.564 86.914-73.68 0-23.855-8.737-42.98-26.234-57.36z m-69.238 92.546h-21.954v-75.186h21.488c29.173 0 43.772 12.686 43.772 38.044 0.001 24.77-14.436 37.142-43.306 37.142z m-416.823-1.655h-1.368c-0.6-6.807-1.94-13.383-4.046-19.699l-26.622-81.35h62.11l-26.465 80.749c-1.71 5.113-2.913 11.88-3.61 20.3z"  horiz-adv-x="1024" />

    
    <glyph glyph-name="clock2" unicode="&#59060;" d="M643.197 328.394l-118.953 65.002v212.846c0 12.153-4.948 22.284-17.36 22.284-12.501 0-17.36-9.976-17.36-22.284v-222.186c0-13.393 15.837-25.372 19.406-27.41l114.861-61.639c10.589-6.046 21.35-4.101 27.557 6.531 6.25 10.707 2.568 20.736-8.15 26.857zM512 828.592c-248.27 0-449.532-199.050-449.532-444.592 0-245.54 201.262-444.592 449.532-444.592 248.268 0 449.532 199.051 449.532 444.592-0.001 245.541-201.264 444.592-449.532 444.592zM512-26.365c-223.443 0-414.811 189.379-414.811 410.365 0 220.988 191.368 410.365 414.811 410.365 223.442 0 414.811-189.377 414.811-410.365 0-220.986-191.37-410.365-414.811-410.365z"  horiz-adv-x="1024" />

    
    <glyph glyph-name="read" unicode="&#59046;" d="M64 114.2c6 66 11.8 130 17.6 194 7.3 79.6 14.8 159.2 21.6 238.9 1 11.5 3 18.8 16.7 16.2 10.2-2 14 2.5 14.3 13 0.4 15.1 2.7 30.2 4.3 46.9h27.5c2.1 20.7 4 39.9 6.2 61.3 124.6-3.3 244.4-17.9 340.9-110.3 24.8 27.7 55.5 48.3 89.7 63.7 78 35 160.4 46.3 245 45.8 1.2 0 2.4-0.6 4.6-1.3 1.5-15.3 3.7-30.7 4.2-46.2 0.4-10.6 4.3-14.4 14.6-12.9 4.5 0.6 9.1 0.1 14.6 0.1 2-20.5 3.9-39.6 5.8-58.2 1.8-0.9 2.6-1.5 3.4-1.5 8.1-1.1 18.9 0.6 23.6-3.9 4.4-4.3 2.7-15.1 3.5-23.1 11.7-128.4 23.3-256.9 35-385.4 1.1-11.7 2-23.4 3.2-36.8h-16c-117.6 0-235.2-0.1-352.8 0.1-9.4 0-16.4-2.4-23.5-9.1-31.1-29.3-80.6-29-111.7 0.6-6.8 6.5-13.5 8.5-22.4 8.5-118-0.2-236.1-0.1-354.1-0.1-5-0.3-9.6-0.3-15.8-0.3zM824.9 652.6c-3.5 0.3-5.6 0.7-7.6 0.6-58.3-1.7-115.3-10.6-170.4-30.4-41.8-15.1-80.7-35.3-110.7-69.2-5-5.7-8.7-14.7-8.7-22.2-0.5-119.3-0.4-238.5-0.4-357.8v-15c50.9 33.7 103.1 59.2 158.8 77.1 56.2 18 114.1 27.1 174.2 29.4-11.8 129.9-23.4 258.6-35.2 387.5zM199.3 653.4c-11.8-130.1-23.5-258.7-35.3-388.7 121.2-3.6 231.1-38.8 333.1-106.1v17.6c0 111.9-1.1 223.7 0.7 335.6 0.4 27.4-8.5 46-29.3 61.1-6.5 4.7-12.7 9.8-19.3 14.3-29.7 20-62.4 33.5-96.7 43.6-49.3 14.8-99.8 21.5-153.2 22.6zM131.7 207.1c92.8-10.8 184.7-21.5 275.9-32.1-0.9 0.5-2.6 1.6-4.3 2.4-77.6 36.3-159 55.9-244.8 57.2-27.7 0.4-27.7 0.4-26.8-27.5zM616.1 175c91.3 10.6 183.7 21.4 277.3 32.3-0.8 7.8-1.6 16.9-2.7 27.2-97.7 2.3-189.1-18.1-274.6-59.5zM926.3 145c0 3.6 0.1 6 0 8.5-0.8 20.9-0.9 22.1-22.1 20.5-57.6-4.3-115.3-9.3-172.8-14.9-28.3-2.8-56.4-7.7-84.6-11.7 0.1-0.8 0.1-1.5 0.2-2.3 92.8-0.1 185.6-0.1 279.3-0.1zM98 145h280.5c-2 1.6-2.6 2.4-3.2 2.5-83.5 8.9-166.9 18.3-250.5 26.4-26.9 2.6-27.1 1-26.8-28.9z"  horiz-adv-x="1024" />

    
    <glyph glyph-name="win" unicode="&#58897;" d="M462.3 408.9V773.1L64.5 710.5v-301.6zM512 359.1v-372l447.5-70.5V359.1zM512 408.9h447.5V851.4L512 781zM462.3 359.1H64.5v-301.6l397.8-62.6z"  horiz-adv-x="1024" />

    
    <glyph glyph-name="social_emoji_awkward" unicode="&#60248;" d="M512-128C229.696294-128 0 101.696294 0 384S229.696294 896 512 896s512-229.696294 512-512-229.696294-512-512-512z m0 959.999639c-247.039675 0-448.000361-200.959964-448.000361-447.999639 0-247.040397 200.959964-448.000361 448.000361-448.000361s447.999639 200.959964 447.999639 448.000361c0 247.039675-200.959241 447.999639-447.999639 447.999639zM352.000181 378.463557c-35.296543 0-64.000361 28.703818-64.000362 64.000361s28.703818 63.999639 64.000362 63.999639 63.999639-28.703818 63.999638-63.999639-28.703096-64.000361-63.999638-64.000361z m0 64.03215zM373.024649 442.463918c-8.192318 0-16.384636 3.136331-22.624062 9.376479-37.439449 37.471961-98.335992 37.439449-135.776163 0-12.512088-12.512088-32.736037-12.512088-45.248125 0-12.512088 12.511365-12.512088 32.736037 0 45.248125 62.400045 62.335744 163.904157 62.367533 226.272413 0 12.511365-12.512088 12.511365-32.73676 0-45.248125-6.271939-6.240149-14.432467-9.37648-22.624063-9.376479zM768 378.463557c-35.296543 0-64.000361 28.703818-64.000361 64.000361s28.703818 63.999639 64.000361 63.999639 63.999639-28.703818 63.999639-63.999639-28.703096-64.000361-63.999639-64.000361z m0 64.03215zM789.024469 442.463918c-8.192318 0-16.384636 3.136331-22.624063 9.376479-37.471961 37.471961-98.367781 37.439449-135.776163 0-12.511365-12.512088-32.736037-12.512088-45.248125 0-12.511365 12.511365-12.511365 32.736037 0 45.248125 62.368256 62.335744 163.904157 62.367533 226.272413 0 12.512088-12.512088 12.512088-32.73676 0-45.248125-6.271939-6.240149-14.432467-9.37648-22.624062-9.376479zM666.335495 128H357.664505c-10.240578 0-19.872097 4.895595-25.888274 13.184004s-7.711862 18.944419-4.576254 28.672029c22.528694 69.536082 98.528174 118.143787 184.800023 118.143786s162.272051-48.607705 184.767511-118.143786a31.874829 31.874829 0 0 0-4.575532-28.672029c-5.983665-8.288409-15.615906-13.184004-25.856484-13.184004zM417.216493 191.999639h189.567736c-23.584252 19.872097-57.599819 32.000542-94.783507 32.000542s-71.2007-12.128445-94.784229-32.000542z"  horiz-adv-x="1024" />

    
    <glyph glyph-name="social_emoji_flirt" unicode="&#60251;" d="M512-128C229.696294-128 0 101.696294 0 384S229.696294 896 512 896s512-229.696294 512-512-229.696294-512-512-512z m0 959.999639c-247.039675 0-448.000361-200.959964-448.000361-447.999639 0-247.040397 200.959964-448.000361 448.000361-448.000361s447.999639 200.959964 447.999639 448.000361c0 247.039675-200.959241 447.999639-447.999639 447.999639zM352.000181 378.463557c-35.296543 0-64.000361 28.703818-64.000362 64.000361s28.703818 63.999639 64.000362 63.999639 63.999639-28.703818 63.999638-63.999639-28.703096-64.000361-63.999638-64.000361z m0 64.03215zM373.024649 442.463918c-8.192318 0-16.384636 3.136331-22.624062 9.376479-37.471961 37.471961-98.367781 37.439449-135.776163 0-12.512088-12.512088-32.736037-12.512088-45.248125 0-12.512088 12.511365-12.512088 32.736037 0 45.248125 62.368256 62.335744 163.904157 62.367533 226.272413 0 12.511365-12.512088 12.511365-32.73676 0-45.248125-6.271939-6.240149-14.432467-9.37648-22.624063-9.376479zM768 378.463557c-35.296543 0-64.000361 28.703818-64.000361 64.000361s28.703818 63.999639 64.000361 63.999639 63.999639-28.703818 63.999639-63.999639-28.703096-64.000361-63.999639-64.000361z m0 64.03215zM789.024469 442.463918c-8.192318 0-16.384636 3.136331-22.624063 9.376479-37.471961 37.471961-98.367781 37.439449-135.776163 0-12.511365-12.512088-32.736037-12.512088-45.248125 0-12.511365 12.511365-12.511365 32.736037 0 45.248125 62.368256 62.335744 163.904157 62.367533 226.272413 0 12.512088-12.512088 12.512088-32.73676 0-45.248125-6.271939-6.240149-14.432467-9.37648-22.624062-9.376479zM576.000361 96.000181H352.000181c-17.664166 0-31.999819 14.303864-31.99982 31.999819s14.335653 31.999819 31.99982 31.999819h224.00018c17.663444 0 31.999819-14.303864 31.99982-31.999819s-14.336376-31.999819-31.99982-31.999819zM576.000361 96.000181c-17.664166 0-32.000542 14.303864-32.000542 31.999819s14.336376 31.999819 32.000542 31.999819c35.29582 0 63.999639 28.703818 63.999639 64.000362 0 17.695233 14.336376 31.999819 31.999819 31.999819 17.664166 0 31.999819-14.304586 31.99982-31.999819 0-70.592363-57.407637-128-127.999278-128z"  horiz-adv-x="1024" />

    
    <glyph glyph-name="social_emoji_zigzag" unicode="&#60256;" d="M768 512c-3.967917 0-8.000135 0.703706-11.872684 2.272232l-159.999819 63.999639c-16.416425 6.560212-24.415838 25.183846-17.855626 41.600271 6.55949 16.480005 25.343516 24.415838 41.599548 17.856348l159.99982-64.000361c16.416425-6.560212 24.415838-25.183846 17.856348-41.600271-5.023475-12.543877-17.055829-20.127858-29.727587-20.127858zM256 512c-12.671758 0-24.704112 7.583981-29.727587 20.127136-6.560212 16.416425 1.439923 35.040059 17.855626 41.600271l160.000542 64.000361c16.22352 6.5277 35.040059-1.376344 41.599548-17.856349 6.560212-16.416425-1.439923-35.040059-17.855626-41.600271L267.871961 514.272232c-3.871826-1.568527-7.904044-2.272232-11.871961-2.272232zM512-128C229.696294-128 0 101.696294 0 384S229.696294 896 512 896s512-229.696294 512-512-229.696294-512-512-512z m0 959.999639c-247.039675 0-448.000361-200.959964-448.000361-447.999639 0-247.040397 200.959964-448.000361 448.000361-448.000361s447.999639 200.959964 447.999639 448.000361c0 247.039675-200.959241 447.999639-447.999639 447.999639zM288.000542 287.999819c-8.192318 0-16.383913 3.136331-22.624062 9.37648-12.512088 12.511365-12.512088 32.736037 0 45.248125l41.376298 41.376298-41.376298 41.376299c-12.512088 12.511365-12.512088 32.736037 0 45.248125 12.512088 12.511365 32.736037 12.511365 45.248124 0l63.999639-64.000361c12.512088-12.511365 12.512088-32.736037 0-45.248125l-63.999639-63.999639c-6.240149-6.240872-14.432467-9.377202-22.624062-9.377202zM655.968481 156.000113a32.088686 32.088686 0 0 0-14.272074 3.35958l-57.69591 28.831699-57.695911-28.831699c-8.991392-4.511952-19.615613-4.511952-28.640239 0l-57.695188 28.831699-57.695911-28.831699c-15.839878-7.840465-35.007547-1.504225-42.94338 14.303864-7.904044 15.808089-1.504225 35.040059 14.303863 42.944103l71.999774 35.999525c8.992115 4.511952 19.615613 4.511952 28.64024 0l57.7277-28.831699 57.695911 28.831699c8.991392 4.511952 19.615613 4.511952 28.640239 0l71.999774-35.999525c15.808089-7.904044 22.207908-27.136737 14.303864-42.944103-5.633257-11.200045-16.928671-17.663444-28.672752-17.663444zM736.000181 287.999819c-8.192318 0-16.384636 3.136331-22.624063 9.37648l-63.999638 63.999639c-12.512088 12.512088-12.512088 32.73676 0 45.248124l63.999638 64.000362c12.512088 12.511365 32.73676 12.511365 45.248125 0 12.512088-12.512088 12.512088-32.73676 0-45.248125l-41.376299-41.376299 41.376299-41.376299c12.512088-12.512088 12.512088-32.73676 0-45.248125-6.240149-6.239427-14.432467-9.375757-22.624062-9.375757z"  horiz-adv-x="1024" />

    
    <glyph glyph-name="emoji" unicode="&#59047;" d="M636.4 456.3c22.8 0 41.3 18.5 41.3 41.3s-18.5 41.3-41.3 41.3-41.3-18.5-41.3-41.3c0-22.8 18.5-41.3 41.3-41.3z m-247.9 0c22.8 0 41.3 18.5 41.3 41.3s-18.5 41.3-41.3 41.3-41.3-18.5-41.3-41.3 18.5-41.3 41.3-41.3zM675.4 381.9c-8.3 4.1-20.6 0-24.8-12.4-4.1-12.4-12.4-28.9-20.6-41.3-24.8-37.2-70.3-57.9-115.7-57.9s-86.7 20.7-119.8 62c-8.2 12.4-16.5 24.8-20.6 41.3-4.2 8.3-12.4 16.5-24.8 12.4-8.3-4.2-16.5-16.5-12.4-29 8.3-16.5 16.5-37.1 28.9-53.7C398.7 258 456.5 229 514.4 229c57.8 0 115.7 28.9 144.5 74.4 12.4 16.5 24.8 33 29 53.7 4 8.3-0.1 20.7-12.5 24.8z"  horiz-adv-x="1024" />

    
    <glyph glyph-name="huifu" unicode="&#58904;" d="M823.466667 324.266667c-42.666667 64-89.6 110.933333-149.333334 149.333333-55.466667 34.133333-136.533333 55.466667-230.4 59.733333h-21.333333L426.666667 554.666667V678.4c0 4.266667 0 4.266667-4.266667 4.266667h-8.533333l-307.2-273.066667v-4.266667l4.266666-4.266666L418.133333 128h8.533334l4.266666 4.266667V298.666667h21.333334c119.466667 0 268.8-59.733333 443.733333-170.666667-8.533333 72.533333-34.133333 140.8-72.533333 196.266667zM469.333333 132.266667c0-17.066667-12.8-34.133333-29.866666-42.666667-17.066667-8.533333-38.4-4.266667-51.2 8.533333l-307.2 273.066667c-12.8 8.533333-17.066667 21.333333-17.066667 34.133333 0 12.8 4.266667 25.6 17.066667 34.133334l307.2 273.066666c12.8 17.066667 34.133333 17.066667 51.2 12.8 17.066667-8.533333 29.866667-25.6 29.866666-42.666666v-106.666667c89.6-8.533333 170.666667-25.6 230.4-64 59.733333-38.4 115.2-93.866667 162.133334-157.866667 51.2-76.8 76.8-166.4 81.066666-264.533333v-42.666667l-34.133333 21.333334c-174.933333 119.466667-320 179.2-435.2 187.733333v-123.733333z"  horiz-adv-x="1024" />

    
    <glyph glyph-name="right" unicode="&#60577;" d="M496.6089693333331 663.272727a46.405818 46.405818 0 0 0 32.90763700000001-13.63781799999999L795.1515153333337 384l-265.63490899999994-265.6349090000001a46.498909 46.498909 0 1 0-65.81527300000003 65.81527299999999L663.5209693333336 384l-199.81963600000006 199.81963599999992A46.498909 46.498909 0 0 0 496.6089693333331 663.272727"  horiz-adv-x="1210" />

    


  </font>
</defs>
</svg>
